<svg xmlns="http://www.w3.org/2000/svg" viewBox="0 0 200 65"><defs><style>.cls-1{fill:#1f1f1f}</style></defs><g id="Layer_1-2" data-name="Layer 1"><path d="M100 64a31.5 31.5 0 1 1 31.5-31.5A31.53 31.53 0 0 1 100 64m0-62.62a31.12 31.12 0 1 0 31.13 31.12A31.16 31.16 0 0 0 100 1.38" class="cls-1"/><rect width="2.2" height="13.99" x="116.33" y="18.12" class="cls-1" rx=".37"/><path d="M84.92 32.56c2.14 0 3.23 1.28 3.23 3.52v.07a.37.37 0 0 1-.37.37h-1.33a.38.38 0 0 1-.38-.37v-.21c0-1-.4-1.38-1.09-1.38s-1.1.38-1.1 1.38c0 2.88 4.29 3.42 4.29 7.41 0 2.24-1.11 3.52-3.28 3.52s-3.27-1.28-3.27-3.52v-.49a.37.37 0 0 1 .38-.36h1.34a.37.37 0 0 1 .37.36v.63c0 1 .44 1.36 1.14 1.36S86 44.49 86 43.49c0-2.87-4.3-3.41-4.3-7.41 0-2.24 1.1-3.52 3.24-3.52M96 36.18V38c0 2.24-1.08 3.45-3.28 3.45H92a.37.37 0 0 0-.37.37v4.52a.37.37 0 0 1-.37.37h-1.45a.38.38 0 0 1-.38-.37V33.09a.38.38 0 0 1 .38-.37h2.86c2.2 0 3.28 1.22 3.28 3.46m-4-1.46a.37.37 0 0 0-.37.37v4a.37.37 0 0 0 .37.37h.67c.7 0 1.08-.32 1.08-1.32V36c0-1-.38-1.32-1.08-1.32Zm11.81 11.62a.32.32 0 0 1-.31.37H102a.43.43 0 0 1-.42-.37l-.27-1.8a.44.44 0 0 0-.43-.37h-2a.43.43 0 0 0-.42.37l-.27 1.8a.43.43 0 0 1-.42.37h-1.28a.31.31 0 0 1-.3-.37l2.12-13.25a.43.43 0 0 1 .43-.37h2.47a.43.43 0 0 1 .43.37Zm-4.9-4.43a.31.31 0 0 0 .31.36h1.38a.32.32 0 0 0 .32-.36l-1-6.34a.06.06 0 0 0-.11 0Zm11.97-.42a.38.38 0 0 1 .37.37v1.49c0 2.24-1.13 3.52-3.29 3.52s-3.27-1.28-3.27-3.52v-7.27c0-2.24 1.12-3.52 3.27-3.52s3.29 1.28 3.29 3.52v1a.38.38 0 0 1-.37.37h-1.34a.37.37 0 0 1-.37-.37v-1.14c0-1-.44-1.38-1.15-1.38s-1.13.38-1.13 1.38v7.55c0 1 .44 1.36 1.13 1.36s1.15-.36 1.15-1.36v-1.63a.37.37 0 0 1 .37-.37Zm3.9-3.24a.38.38 0 0 0 .37.37h2.28a.37.37 0 0 1 .37.37v1.25a.38.38 0 0 1-.37.38h-2.28a.37.37 0 0 0-.37.36v3.36a.37.37 0 0 0 .37.37h3.06a.38.38 0 0 1 .37.37v1.26a.38.38 0 0 1-.37.37h-5.26a.38.38 0 0 1-.37-.37V33.09a.38.38 0 0 1 .37-.37h5.26a.38.38 0 0 1 .37.37v1.26a.37.37 0 0 1-.37.37h-3.06a.38.38 0 0 0-.37.37ZM91.87 21.34v.5a2.91 2.91 0 0 1-1.07 2.62c-.12.08-.16.27 0 .34a3 3 0 0 1 1.34 2.85v1.14a3 3 0 0 1-3.34 3.32h-3.13a.37.37 0 0 1-.37-.37V18.49a.36.36 0 0 1 .37-.37h3c2.27 0 3.25 1.06 3.25 3.22m-4-1.22a.36.36 0 0 0-.36.37v3a.36.36 0 0 0 .36.36h.5c.82 0 1.31-.35 1.31-1.47v-.79c0-1-.33-1.43-1.11-1.43Zm0 5.69a.37.37 0 0 0-.36.37v3.56a.36.36 0 0 0 .36.37h.9c.74 0 1.14-.34 1.14-1.38v-1.22c0-1.3-.43-1.7-1.43-1.7Zm7.22-7.69a.36.36 0 0 1 .37.37v10.42c0 1 .44 1.36 1.14 1.36s1.14-.36 1.14-1.36V18.49a.36.36 0 0 1 .37-.37h1.34a.37.37 0 0 1 .37.37v10.28c0 2.24-1.12 3.51-3.28 3.51s-3.28-1.28-3.28-3.51V18.49a.37.37 0 0 1 .37-.37Zm11.95 0a.36.36 0 0 1 .37.37v1.22a1.9 1.9 0 0 1-.14.71l-3.9 9.35a.25.25 0 0 0 .23.34h3.44a.36.36 0 0 1 .37.37v1.26a.37.37 0 0 1-.37.37h-5.69a.38.38 0 0 1-.38-.37v-1.22a1.7 1.7 0 0 1 .15-.71l3.89-9.35a.24.24 0 0 0-.23-.34h-3.23a.38.38 0 0 1-.38-.37v-1.26a.37.37 0 0 1 .38-.37Zm7.4 0a.37.37 0 0 1 .36.37v1.22a1.9 1.9 0 0 1-.14.71l-3.89 9.35a.24.24 0 0 0 .22.34h3.45a.37.37 0 0 1 .36.37v1.26a.37.37 0 0 1-.36.37h-5.7a.38.38 0 0 1-.37-.37v-1.22a1.9 1.9 0 0 1 .14-.71l3.89-9.35a.24.24 0 0 0-.23-.34H109a.37.37 0 0 1-.37-.37v-1.26a.36.36 0 0 1 .37-.37ZM83.55 25.1A1.53 1.53 0 1 0 82 26.63a1.52 1.52 0 0 0 1.53-1.53" class="cls-1"/></g></svg>