<svg xmlns="http://www.w3.org/2000/svg" viewBox="0 0 200 65"><path d="M85.45 35.91v-2.78H80.8l2.2 2.29v4.45a8.35 8.35 0 0 1-5.51 2.29c-2.91 0-7.23-2.57-7.23-9.65s3.9-9.66 7.23-9.66a6 6 0 0 1 6 4.08l.1.28 1.55-.89-.09-.2a7.83 7.83 0 0 0-7.52-4.61c-5.83 0-10.24 4.73-10.24 11s4.41 11 10.24 11a11.08 11.08 0 0 0 8-3.5v-.06Zm5.1-12.33h9.36l-1.47-1.5H87.86v20.86h10.47l1.47-1.5h-9.25v-8.37h8.72v-1.5h-8.72Zm40.19 19.36-6.82-9.75c4.15 0 6.63-1.94 6.63-5.18 0-3.71-2.93-5.93-7.82-5.93h-6.22v15.25l-11.64-15.25H101l1.6 2.26v18.6h1.75V26l13.92 18V23.57l4.26-.09c1.21 0 5.16.33 5.16 4.62 0 2.53-2 3.81-6 3.81h-1l6.7 11.09Zm17.38-10.43c0 6.34-3.5 9.65-7 9.65s-6.95-3.31-6.95-9.65 3.49-9.66 6.95-9.66 7 3.32 7 9.66m3 0c0-6.17-4.38-11-10-11s-10 4.83-10 11 4.38 11 10 11 10-4.83 10-11m3.68-5.79c0-1.87 1.38-3.87 3.43-3.87s2.83.83 3.68 2.36l.13.23 1.29-.87-.11-.2a5.21 5.21 0 0 0-5-2.86 5.9 5.9 0 0 0-6.06 6.16c0 3.56 2.42 4.57 4.77 5.54s4.28 1.78 4.28 4.73a3.76 3.76 0 0 1-4 4.06 4.12 4.12 0 0 1-3.61-2.62l-.13-.26-1.45 1 .1.19a5.85 5.85 0 0 0 5.5 3.18 6.35 6.35 0 0 0 6.38-6.43c0-3.66-2.49-4.69-4.9-5.68-2.2-.91-4.28-1.76-4.28-4.66M178 23.58l-1.47-1.5h-10.59v20.86h10.47l1.48-1.5h-9.26v-8.37h8.72v-1.5h-8.71v-8Zm-124.19-.33-6.15 8.21-.61-.46-15-12.59L36.27 16l2.53-1.45Zm.49 2.64v15.66l-15.61 9L36 48.92Zm-26.39 6 .18-.16 9.09 13.67L35 48.36 24.05 42l-.92-.54V36Zm-4.76 1.43v-9.9l7.9-4.52 5.22 4.4Zm9 2.5-3.2-4.81L36 25Zm3.37-6.17.57 8.45h.05l-1.76 1.08-1-1.58-.48-.6Zm10.88 3.48-7.59 10.14-.93 1.23L35 40.13Zm-6.3-4.25-3.81-1.37.94-2.62.2-.58 7.51 6.32Zm-3.26 4-.28-4.1L44 31.24Zm7.8-1.2 1.26.46-8.75 5.36-.23-3.36ZM38.86 13.3l-.12-.07L22 22.83v19.31l16.54 9.6.12.07 16.71-9.6V22.9Z" data-name="#genrose" style="fill:#1f1f1f"/></svg>