<svg xmlns="http://www.w3.org/2000/svg" viewBox="0 0 200 65"><path d="M51.25 55.54a2.6 2.6 0 0 0 1.22.38c1 0 1.9-.91 1.9-2.48s-.84-2.23-1.86-2.23a2.3 2.3 0 0 0-1.26.4m-1.68-2.73a5.1 5.1 0 0 0 1.64-.46v3a2.7 2.7 0 0 1 1.79-.66 2.23 2.23 0 0 1 2.23 2.42 2.87 2.87 0 0 1-2.9 3 10 10 0 0 1-1.94-.25v-5.81c0-.92-.19-1-.86-1.2Zm9.37 4.54a3 3 0 0 0-.54-.05c-.94 0-1.57.46-1.57 1.27a1 1 0 0 0 1.09 1 2.3 2.3 0 0 0 1-.29m-2.37-3.89c.33.06.56.23.56.52a.46.46 0 0 1-.48.46.49.49 0 0 1-.49-.5c0-.65 1.1-1.18 2.07-1.18a1.33 1.33 0 0 1 1.51 1.39v2.68c0 .82.43.88 1 .93v.05a5.2 5.2 0 0 1-1.14.27.61.61 0 0 1-.63-.65 2.64 2.64 0 0 1-1.59.7A1.28 1.28 0 0 1 56 54.84c0-.81.66-1.59 2.93-1.68v-.62c0-.94-.36-1.45-1.22-1.45a1.78 1.78 0 0 0-1.15.37m7.29.44a.57.57 0 1 1 0-1.14.57.57 0 1 1 0 1.14M61 51.21a5 5 0 0 0 1.61-.45v4c0 .85.17 1.06.87 1.23h-2.35c.59-.18.73-.38.73-1.23v-2.24c0-.89-.1-1.06-.85-1.27Zm4.59 2.03c0 1.55.9 2.26 1.89 2.26a2.18 2.18 0 0 0 1.38-.5h.07a2.44 2.44 0 0 1-2 1.09 2.3 2.3 0 0 1-2.24-2.55 2.6 2.6 0 0 1 2.52-2.82c.67 0 1.41.27 1.41.81a.59.59 0 0 1-.59.6.53.53 0 0 1-.54-.52.73.73 0 0 1 .31-.6 1.8 1.8 0 0 0-.5-.01c-1.11 0-1.71.94-1.71 2.27m4.61-.44 2.58-.09c0-1.28-.46-1.76-1.14-1.76s-1.31.62-1.44 1.85m0 .47c0 1.39.78 2.19 1.84 2.19a2.42 2.42 0 0 0 1.55-.59 2.41 2.41 0 0 1-2 1.19 2.3 2.3 0 0 1-2.27-2.54 2.58 2.58 0 0 1 2.41-2.83c1 0 1.85.38 1.85 2a2 2 0 0 1 0 .26h-3.39Zm4.04-4.42a5.3 5.3 0 0 0 1.64-.46v6.35c0 .82.14 1 .73 1.2h-2.25c.59-.18.73-.38.73-1.2v-4.65c0-.88-.13-1-.85-1.2m7.39 4.51C81.63 52.14 81 51 80 51s-1.66 1.17-1.66 2.46.49 2.49 1.66 2.49 1.66-1.31 1.66-2.49m-4.25 0a2.6 2.6 0 1 1 5.19 0 2.6 2.6 0 1 1-5.19 0m10.1-.98a1.05 1.05 0 0 0-1.12-1.2 3 3 0 0 0-1.4.43v3.06c0 .83.14 1 .74 1.2h-2.26c.59-.18.73-.37.73-1.2v-2.13c0-1.13-.1-1.23-.85-1.44a5.3 5.3 0 0 0 1.59-.4v.81a3.24 3.24 0 0 1 1.85-.81c.78 0 1.47.45 1.47 1.73v2.25c0 .84.14 1 .74 1.23h-2.22c.59-.18.73-.39.73-1.23m5.17-1.36a3 3 0 0 0-.54-.05c-.94 0-1.57.46-1.57 1.27a1 1 0 0 0 1.09 1 2.3 2.3 0 0 0 1-.29m-2.37-3.89c.34.06.55.23.55.52a.45.45 0 0 1-.47.46.49.49 0 0 1-.49-.5c0-.65 1.1-1.18 2.07-1.18a1.33 1.33 0 0 1 1.51 1.39v2.68c0 .82.43.88 1 .93v.05a5 5 0 0 1-1.13.27.61.61 0 0 1-.63-.65 2.62 2.62 0 0 1-1.59.7 1.28 1.28 0 0 1-1.36-1.29c0-.81.66-1.59 2.93-1.68v-.62c0-.94-.37-1.45-1.22-1.45a1.76 1.76 0 0 0-1.15.37m6.57-2.58a5.3 5.3 0 0 0 1.64-.46v6.35c0 .82.14 1 .73 1.2H97c.59-.18.73-.38.73-1.2v-4.65c0-.88-.13-1-.85-1.2M101 50a.54.54 0 0 1-.54-.54.54.54 0 0 1 .54-.54.55.55 0 0 1 .54.54.54.54 0 0 1-.54.54m-1.24 1.19a5.3 5.3 0 0 0 1.61-.4v4c0 .82.14 1 .73 1.2h-2.19c.6-.18.74-.38.74-1.2v-2.37c0-.89-.15-1-.86-1.22Zm6.37 1.39c0-.85-.38-1.62-1.1-1.62s-1.1.73-1.1 1.59.35 1.61 1.1 1.61 1.1-.78 1.1-1.58m-2 3.4a1.33 1.33 0 0 0-.82 1.1c0 .67.64 1.11 1.63 1.11s2-.5 2-1.34c0-.49-.31-.75-1-.78l-1.61-.07h-.17m.09-1.77a1 1 0 0 0-.35.62c0 .23.18.41.64.43l1.44.07c1 .05 1.68.31 1.68 1.17 0 1.29-1.66 1.92-3 1.92-1 0-2.05-.37-2.05-1.14s1.12-1.19 1.47-1.32c-.45-.09-.75-.35-.75-.68s.21-.73.82-1.12a1.71 1.71 0 0 1-1.06-1.61 1.79 1.79 0 0 1 1.91-1.81 2.26 2.26 0 0 1 1.17.32l1.65-.32-.08.66-1.32-.13a1.57 1.57 0 0 1 .57 1.25 1.84 1.84 0 0 1-1.93 1.81 2.1 2.1 0 0 1-.8-.14m7.97-1.73a1.05 1.05 0 0 0-1.12-1.2 3 3 0 0 0-1.39.43v3c0 .87.14 1.07.73 1.23h-2.29c.59-.18.73-.39.73-1.23v-4.53c0-.88-.1-1-.85-1.26a5 5 0 0 0 1.64-.46v3.15a3.3 3.3 0 0 1 1.81-.81c.81 0 1.49.45 1.49 1.74v2c0 1.07.09 1.28.74 1.46h-2.22c.59-.18.73-.39.73-1.23m5.32.67a2.06 2.06 0 0 1-1.38.65c-.71 0-1.14-.46-1.14-1.62v-3.21h-.8l.41-.23a3.16 3.16 0 0 0 1.17-1.32v1.21h1.39v.36h-1.39v3.39c0 .63.31.93.84.93a2.3 2.3 0 0 0 .82-.17m.53-1.04c.45 1 1 1.54 1.66 1.54a1 1 0 0 0 1-.93c0-1.27-2.68-1.09-2.68-2.85a1.48 1.48 0 0 1 1.66-1.39 3.5 3.5 0 0 1 1.31.29v1.21h.05c-.39-.9-.9-1.3-1.41-1.3a.89.89 0 0 0-.92.87c0 1.24 2.72 1 2.72 2.81a1.58 1.58 0 0 1-1.78 1.49 3.36 3.36 0 0 1-1.57-.42m32.66-32.1a2.8 2.8 0 0 1-1.14-.26 3 3 0 0 1-1.56-1.87c-.29-.72-.69-1.69-1.75-1.69a1.8 1.8 0 0 0-.47.06.09.09 0 0 1-.09-.13 4.33 4.33 0 0 1 3.38-1.61 4.25 4.25 0 0 1 3.1 1.25 2.78 2.78 0 0 1 .79 2.07 2.29 2.29 0 0 1-2.29 2.18m-69.46 17.1c-4.35-.91-7.88-6-7.88-11.3a11.32 11.32 0 0 1 8.44-11.14.08.08 0 0 1 .09.05.08.08 0 0 1 0 .1c-2.72 2.31-4.34 6.41-4.34 11 0 2.69.49 7.72 3.8 11.15a.08.08 0 0 1 0 .11m5.79.03a.08.08 0 0 1-.07 0 .09.09 0 0 1 0-.1c3.29-3.43 3.78-8.47 3.78-11.16 0-4.58-1.62-8.68-4.34-11a.08.08 0 0 1 0-.1.07.07 0 0 1 .09 0A11.3 11.3 0 0 1 95 29.41c0 5.32-3.53 10.39-7.87 11.3m18.09.46a.1.1 0 0 1-.08-.05l-6.83-17.64c-.06-.14-.12-.28-.18-.44-.71-1.7-1.59-3.81-4-4.2a.06.06 0 0 1-.06-.08.08.08 0 0 1 .08-.08H104a.09.09 0 0 1 .09.08.09.09 0 0 1-.09.09 1.94 1.94 0 0 0-1.7.76c-.55.76-.58 2-.06 3.61l5 13.79-1.28 4.06a.09.09 0 0 1-.08.06m5.5-14.91a.09.09 0 0 1-.06-.1 9.45 9.45 0 0 0 .36-4.65v-.1c-.16-1-.69-2.15-3.33-2.51a.08.08 0 0 1-.07-.09.09.09 0 0 1 .08-.08h9.61a.08.08 0 0 1 .08.08.08.08 0 0 1-.08.09c-2.53 0-5.26 4.38-6.48 7.33a.08.08 0 0 1-.08 0m13.89 2.03a.08.08 0 0 1-.08-.07.08.08 0 0 1 .06-.1l6.16-1.58c0-4.33-1.32-7.18-3.72-8a.1.1 0 0 1 0-.1.1.1 0 0 1 .08-.07 7.18 7.18 0 0 1 5.15 2.28c1.64 1.75 2.47 4.29 2.48 7.56s0 .05 0 .06h-.06m-9 12.88c-5.74 0-9.76-4.68-9.76-11.37 0-6.21 2.89-10.5 7.72-11.49a.09.09 0 0 1 .1.05.08.08 0 0 1 0 .1c-2.82 1.83-4 4.85-4 10.4s2.76 9 7 9a13.3 13.3 0 0 0 7.07-2.05.09.09 0 0 1 .1 0 .1.1 0 0 1 0 .1c-.46 1.05-3.39 5.29-8.28 5.29m20.37-.52h-9.88a.09.09 0 0 1-.08-.09.09.09 0 0 1 .08-.08c1.08 0 3.1-1.43 3.1-4.84V25.09c0-4-2.43-4.82-3.48-5a.08.08 0 0 1-.07-.09.09.09 0 0 1 .08-.08 16.4 16.4 0 0 0 6.88-2.23.14.14 0 0 1 .09 0 .09.09 0 0 1 0 .08v17.81c0 2.84 1.27 4.74 3.24 4.84a.08.08 0 0 1 .08.09.09.09 0 0 1-.08.08m-96.01-.33a.07.07 0 0 1 0-.07V15.11c0-3.55-1.05-5.37-3.5-6.08a.08.08 0 0 1-.14-.09.08.08 0 0 1 .08-.07 14.1 14.1 0 0 0 7.06-2.27.08.08 0 0 1 .13.06v31.69a.08.08 0 0 1-.05.07l-3.55 1.83m10.41-.07a10.6 10.6 0 0 1-1.8-.16s0 0-.06 0a.06.06 0 0 1 0-.06l.07-.24a.07.07 0 0 1 .09 0 4.46 4.46 0 0 0 2.91-.3c2.45-1.11 4-5 4-10.14 0-9-5.31-9.24-5.92-9.24a7.13 7.13 0 0 0-3.78 1.26.09.09 0 0 1-.11 0 .08.08 0 0 1 0-.11l.28-.28c1.63-1.73 2.82-2.91 5.55-2.91 4.91 0 8 4 8 10.34a14 14 0 0 1-2.36 8.29 8.33 8.33 0 0 1-6.63 3.54h-.2" data-name="#bover" style="fill:#1f1f1f"/></svg>