<svg xmlns="http://www.w3.org/2000/svg" viewBox="0 0 200 65"><defs><style>.cls-1,.cls-2{fill:#1f1f1f;}.cls-1{fill-rule:evenodd;}</style></defs><g id="_arktura" data-name="#arktura"><path id="path10" class="cls-1" d="M23.07,32.21c-.42-4.83,3.47-12.35,3.6-12.61L14,45.4s3.24-4.44,7.12-4.88C29,39.66,39.83,45.4,39.83,45.4,34.8,38,23.6,38.23,23.07,32.21Z"/><path id="path12" class="cls-1" d="M26.67,19.6s-3.57,6.92-1.91,10.59C27,35,33.11,32.21,39.83,45.4Z"/><path id="path14" class="cls-1" d="M23.07,32.21c-.42-4.83,3.47-12.35,3.6-12.61L14,45.4s3.24-4.44,7.12-4.88C29,39.66,39.83,45.4,39.83,45.4,34.8,38,23.6,38.23,23.07,32.21Z"/><path id="path16" class="cls-1" d="M26.67,19.6s-3.57,6.92-1.91,10.59C27,35,33.11,32.21,39.83,45.4Z"/><path id="path18" class="cls-2" d="M180.58,26,186,37.34h-1.73l-1-2.18h-5.18l-1,2.22h-1.85Zm-1.82,7.71h3.72l-1.9-3.94Zm-14.33-3.92a3.54,3.54,0,0,1-2.18,3.17l2.27,4.46h-1.84l-.07-.13-2.11-4.2H158v4.33h-1.78V26.29h4.68A3.56,3.56,0,0,1,164.43,29.75Zm-2.74,1.63h0a1,1,0,0,0,.21-.21,1.91,1.91,0,0,0,.48-.58l.08-.2a1.53,1.53,0,0,0,.12-.6v-.38a1.8,1.8,0,0,0-.34-.76,1.93,1.93,0,0,0-.87-.64l-.31-.08H158v3.69h3.08a1.06,1.06,0,0,0,.3-.1,1.35,1.35,0,0,0,.3-.14Zm-18.31,1.53.07-6.63h1.84V33a4,4,0,0,1-1.26,3,4.8,4.8,0,0,1-3.25,1.28,4.33,4.33,0,0,1-4.45-4.2V26.23h1.84v6.92a.81.81,0,0,0,0,.22.43.43,0,0,1,.06.22v.09l.07.26a1,1,0,0,0,.11.24l.12.23.13.2.14.17.11.11.2.17.45.28.44.16.22,0h1l.28-.06.27-.09.26-.11.24-.14.21-.15.19-.18a.63.63,0,0,0,.11-.12l.08-.08.12-.17.13-.23.1-.24a.5.5,0,0,0,.08-.26l.06-.26v-.08a.53.53,0,0,1,0-.25v-.22Zm-27.13-5V26.28h9v1.65H121.6v9.45h-1.84V27.93Zm-12-1.65h2.35l-5.06,5.55,5.06,5.55h-2.18L100,32.61h-.09v4.77H98.14V26.28h1.79V31ZM85.37,29.75a3.53,3.53,0,0,1-2.21,3.17l2.29,4.46H83.61l-2.18-4.33H78.91v4.33H77.18V26.29h4.68A3.54,3.54,0,0,1,85.37,29.75Zm-2.73,1.64.27-.2a3.11,3.11,0,0,0,.31-.32,2.37,2.37,0,0,0,.25-.47,1,1,0,0,0,.09-.29,1.6,1.6,0,0,0,0-.31v-.4a1.82,1.82,0,0,0-.08-.29,2,2,0,0,0-.58-.78l-.26-.18a2,2,0,0,0-.29-.14L82,27.93H79v3.69H82l.33-.09Zm-27.51,6L60.52,26,66,37.34H64.22l-1-2.18H58l-1,2.22Zm7.28-3.71-1.89-3.94L58.7,33.67Z"/></g></svg>