<svg xmlns="http://www.w3.org/2000/svg" viewBox="0 0 200 65"><defs><style>.cls-1{fill:#1f1f1f;fill-rule:evenodd}</style></defs><g id="_arktura" data-name="#arktura"><path id="path10" d="M23.07 32.21c-.42-4.83 3.47-12.35 3.6-12.61L14 45.4s3.24-4.44 7.12-4.88c7.88-.86 18.71 4.88 18.71 4.88C34.8 38 23.6 38.23 23.07 32.21" class="cls-1"/><path id="path12" d="M26.67 19.6s-3.57 6.92-1.91 10.59C27 35 33.11 32.21 39.83 45.4Z" class="cls-1"/><path id="path14" d="M23.07 32.21c-.42-4.83 3.47-12.35 3.6-12.61L14 45.4s3.24-4.44 7.12-4.88c7.88-.86 18.71 4.88 18.71 4.88C34.8 38 23.6 38.23 23.07 32.21" class="cls-1"/><path id="path16" d="M26.67 19.6s-3.57 6.92-1.91 10.59C27 35 33.11 32.21 39.83 45.4Z" class="cls-1"/><path id="path18" d="M180.58 26 186 37.34h-1.73l-1-2.18h-5.18l-1 2.22h-1.85Zm-1.82 7.71h3.72l-1.9-3.94Zm-14.33-3.92a3.54 3.54 0 0 1-2.18 3.17l2.27 4.46h-1.84l-.07-.13-2.11-4.2H158v4.33h-1.78V26.29h4.68a3.56 3.56 0 0 1 3.53 3.46Zm-2.74 1.63a1 1 0 0 0 .21-.21 1.9 1.9 0 0 0 .48-.58l.08-.2a1.5 1.5 0 0 0 .12-.6v-.38a1.8 1.8 0 0 0-.34-.76 1.93 1.93 0 0 0-.87-.64l-.31-.08H158v3.69h3.08a1 1 0 0 0 .3-.1 1.4 1.4 0 0 0 .3-.14Zm-18.31 1.53.07-6.63h1.84V33a4 4 0 0 1-1.26 3 4.8 4.8 0 0 1-3.25 1.28 4.33 4.33 0 0 1-4.45-4.2v-6.85h1.84v6.92a.8.8 0 0 0 0 .22.43.43 0 0 1 .06.22v.09l.07.26a1 1 0 0 0 .11.24l.12.23.13.2.14.17.11.11.2.17.45.28.44.16h1.22l.28-.06.27-.09.26-.11.24-.14.21-.15.19-.18a.6.6 0 0 0 .11-.12l.08-.08.12-.17.13-.23.1-.24a.5.5 0 0 0 .08-.26l.06-.26v-.08a.5.5 0 0 1 0-.25v-.22Zm-27.13-5v-1.67h9v1.65h-3.65v9.45h-1.84v-9.45Zm-12-1.65h2.35l-5.06 5.55 5.06 5.55h-2.18L100 32.61h-.09v4.77h-1.77v-11.1h1.79V31Zm-18.88 3.45a3.53 3.53 0 0 1-2.21 3.17l2.29 4.46h-1.84l-2.18-4.33h-2.52v4.33h-1.73V26.29h4.68a3.54 3.54 0 0 1 3.51 3.46m-2.73 1.64.27-.2a3 3 0 0 0 .31-.32 2.4 2.4 0 0 0 .25-.47 1 1 0 0 0 .09-.29 1.6 1.6 0 0 0 0-.31v-.4a2 2 0 0 0-.08-.29 2 2 0 0 0-.58-.78l-.26-.18a2 2 0 0 0-.29-.14l-.35-.08h-3v3.69h3l.33-.09Zm-27.51 6L60.52 26 66 37.34h-1.78l-1-2.18H58l-1 2.22Zm7.28-3.71-1.89-3.94-1.82 3.93Z" style="fill:#1f1f1f"/></g></svg>