<svg xmlns="http://www.w3.org/2000/svg" viewBox="0 0 200 65"><defs><style>.cls-1{fill:#1f1f1f;fill-rule:evenodd;}</style></defs><g id="Layer_1-2" data-name="Layer 1"><path class="cls-1" d="M67,19.48c.29-.64.09-3.66.08-4.62L67,14.77c-.75-.3-2,.07-2.89-.08-.39.34-.22,4.1-.2,4.74A8.42,8.42,0,0,0,67,19.48Zm22.19-4.62a6.17,6.17,0,0,0-2.51-.17l-.66.08v4.71H89.1C89.39,18.84,89.19,15.82,89.18,14.86Zm52.11.49-1.41.37a4.76,4.76,0,0,0-2.47,2.85,4.53,4.53,0,1,0,3.88-3.22Zm1.36,7.92a3.55,3.55,0,0,1-4.17-4.7c.53-1.32,1.43-1.64,2.76-2.19C146.14,16.3,146.49,22.36,142.65,23.27ZM54,28.92c-.8-4.36-4.34-8.6-10-7.22a8.19,8.19,0,0,0-2.47,1.12l-1.16.9h0c0-2.72,0-5.44,0-8.16-.62-.36-3.32-.14-4.29-.13l-.7.29A1.35,1.35,0,0,0,35.72,18c.52.18,1.4-.1,1.86.12.26.23.12,3.57.12,4.25V35.07l-.12.08c-1.25.49-2.48-.41-2.77,1.2s2.12,1.44,3.59,1.44a4.91,4.91,0,0,0,1.74-.08c.23-.2.14-1.11.12-1.53l.12-.08A8.4,8.4,0,0,0,43,37.83c5.14,2.09,9.24-1.7,10.52-5.24A7.48,7.48,0,0,0,54,28.92Zm-7,6.77c-4.27,1-7.73-3.36-6.55-7.51a6.05,6.05,0,0,1,3.58-3.84l1.16-.24c3.2,0,5,1.44,5.9,3.71A6,6,0,0,1,47,35.69Zm96.37-14.56-.62-.95c.11-.4.48-.52.58-.95.44-1.88-1.8-1.59-3.22-1.73-.31.13-.43.12-.58.41s.14.52.46.58a8.48,8.48,0,0,1,.08,2.64,1,1,0,0,0-.54.45l.09.41a2.88,2.88,0,0,0,1.93.08l.13-.2a.66.66,0,0,0,0-.5.78.78,0,0,0-.5-.16,1,1,0,0,1-.12-.62l.16-.21c.85.11,1.4,1,1.65,1.69a1.26,1.26,0,0,0,1,0,.66.66,0,0,0,.13-.53C143.82,21.26,143.58,21.33,143.39,21.13Zm-2.31-2.6.08,0a2.83,2.83,0,0,1,1,.12.58.58,0,0,1,.17.49C141.77,19.57,140.87,19.71,141.08,18.53Zm-33.91,3c-.71.27-1.87.15-2.6.41a8.74,8.74,0,0,0-5.16,4.87,8.46,8.46,0,0,0,4.87,11,7.09,7.09,0,0,0,3.43.58c3.71-.53,6-1.93,7.3-4.83A8.41,8.41,0,0,0,107.17,21.5ZM113,32.06a6.06,6.06,0,0,1-5,3.71c-4.22.69-7.82-3.89-6.23-8a6.15,6.15,0,0,1,3.75-3.51l1.69-.25C111.13,24.11,114.7,27.78,113,32.06ZM73.14,35.44c-.71-.48-4.71-.26-5.9-.25-.34-.63-.13-2.82-.13-3.75V22.12c-.61-.36-5.2-.14-6.35-.13a3.76,3.76,0,0,0-.82.29,1.32,1.32,0,0,0,.45,2.23l4.13.12c0,3.49,0,7,0,10.48-1.34.69-7.67-1.09-6.4,1.94.4,1,2.08.74,3.43.74h8.29c1.14,0,2.71.18,3.38-.33A1.41,1.41,0,0,0,73.14,35.44Zm17.57-3.92c0-3.13,0-6.27,0-9.4C90,21.77,88.46,22,87.58,22H80.07c-.42.18-.81.18-1.07.5a1.39,1.39,0,0,0,.61,2l2.52.08H88c.36.62.12,3.16.12,4.13V36A13.51,13.51,0,0,1,88,39.36a3.66,3.66,0,0,1-1.2,1.73c-1.2.9-3.58.62-5.65.62a4.3,4.3,0,0,0-1.85.17c-.63.35-.93,1.72-.17,2.18s3.64.21,4.87.21C91.56,44.28,90.71,38.91,90.71,31.52ZM135,35.19l-.08-.12q0-6.48,0-12.95l-.12-.09a30.66,30.66,0,0,0-5.16,0,1.34,1.34,0,0,0-.82,1.08c-.32,1.91,2.13,1.16,3.5,1.48q0,4.15,0,8.29c-.22.75-2.23,1.89-3,2.23s-2.82,1-4,.37a2.66,2.66,0,0,1-1.15-1.36,10.15,10.15,0,0,1-.17-3V25c0-1,0-1.95,0-2.92-.21-.25-3.36-.14-4-.13l-.83.25a1.41,1.41,0,0,0-.16,2c.49.47,1.6.31,2.39.37.34.76.08,3.19.08,4.21,0,4.74-.23,7.73,3.1,9.24a7.82,7.82,0,0,0,1.94.25A6.7,6.7,0,0,0,129,38a15.19,15.19,0,0,0,3.18-1.57c.19.19.14.87.16,1.2,1,.49,4.18.11,4.54-.5C137.67,35.85,136.23,35.15,135,35.19ZM41.17,46.33l-.37,0-.17.16,0,.62a.57.57,0,0,0,.46,0,.5.5,0,0,0,.12-.57C41.28,46.41,41.28,46.42,41.17,46.33Zm7.17.74v-.74l-.45,0a1.86,1.86,0,0,0-.08.78.49.49,0,0,0,.41,0Zm68.11,0a.45.45,0,0,0,.13-.53c0-.16,0-.15-.09-.25l-.37,0-.08.12V47l0,.12Zm45.21-.82-.08.16-.08.42.16.12a1.25,1.25,0,0,0,.21-.45h.21a2.74,2.74,0,0,1,.08,1l-.29.2v.09l.83,0,0-.17-.25-.08v-1c.08-.13,0-.09.21-.12l.16.45H163a1,1,0,0,0,.05-.62A4,4,0,0,0,161.66,46.29Zm3.55,0-.41,0a2.28,2.28,0,0,0-.33.62l-.12,0c-.33-.27-.1-.58-.75-.58-.09.31.24.9-.08,1.48a1.11,1.11,0,0,0,.66.09l0-.09c-.15-.19-.33-.36-.16-.66V47h0l.16.41h.21a.68.68,0,0,1,.25-.37c.21.27,0,.51-.17.66v.09l.62,0,0,0a2.19,2.19,0,0,1,0-1.45ZM45.66,49l0-2.47-.12-.09h-.13l-.9.13c-.1.09-.09.21-.09.41l.71,0a.64.64,0,0,1,0,.45c-.43.33-1.72-.53-1.9,1-.43,1.26,1.8,1.23,2.72,1.2C46.14,49.2,45.86,49.19,45.66,49Zm-.57-.16a1,1,0,0,1-1,.2.53.53,0,0,1-.28-.74c.1-.21.22-.25.41-.37h.53c.17.14.32.19.42.41A.77.77,0,0,1,45.09,48.81Zm28.62.24L73.63,49l0-2.43-.16-.09-.21,0-.83.09-.08.12,0,.21.62,0,.13,0v2.14l-.75.09-.08.37a4.47,4.47,0,0,0,2.06,0l.13-.08-.09-.33Zm22.28,0a7.92,7.92,0,0,1-.08-2.55l-.29-.13-.87.13c-.13.09-.13.13-.12.37a1.82,1.82,0,0,0,.74.08.55.55,0,0,1,0,.45l-.08.13c-.89-.38-2.32.21-1.77,1.36.37.79,1.64.7,2.64.66a.36.36,0,0,0,.08-.37A.6.6,0,0,0,96,49.09Zm-.62-.28a1.27,1.27,0,0,1-1.07.24L94,48.64v-.33a1.52,1.52,0,0,1,.66-.45,1.45,1.45,0,0,1,.74.33l.08.24Zm6.85-2.27-.16-.09-.21,0-.87.13v.2c.13.18.46.11.7.13a5,5,0,0,1,0,2.18l-.66.09-.17.12,0,.21a3.79,3.79,0,0,0,2,.08c.14-.09.12-.1.13-.33-.18-.1-.51-.08-.75-.17A8.92,8.92,0,0,1,102.22,46.54Zm10.64,1.77a1.78,1.78,0,0,1,1-.49v-.33a2.45,2.45,0,0,0-1.19-.09c-.15.32.06.64-.33.83l-.08,0c0-.55,0-1.1-.05-1.65l-.28-.13-.5.09-.12.08v.2l.33.13a5.66,5.66,0,0,1,.12,2.06c-.14.1-.28.13-.37.29l0,.25a1.16,1.16,0,0,0,.74,0c.17-.13.15-.65.17-.91l.2,0,.13.08c.24.32.19.41.28.87l1.12,0,.08-.37C113.6,48.94,113.07,48.87,112.86,48.31Zm25.37.74a8.92,8.92,0,0,1-.12-2.51l-.33-.13-.87.09,0,.08v.25l.7,0a4.84,4.84,0,0,1,0,2.18l-.78.13v.37l2.06,0,.09-.08,0-.33C138.78,49.11,138.42,49.12,138.23,49.05Zm3.55,0a8.6,8.6,0,0,1-.12-2.59l-.29-.09-.87.09-.08.12,0,.21.62,0,.08.08v2.1l-.7.09-.12.33.12.08h2.06l0-.41ZM59.24,49c0-.81,0-1.62-.05-2.43a2.51,2.51,0,0,0-1-.09l-.2,0,0,.28a2.28,2.28,0,0,0,.7.09,5.29,5.29,0,0,1,.08,2.06l0,.12-.66.09-.17.16.05.25,2.06,0,.08-.37c-.18-.1-.51-.08-.74-.17ZM37.41,47.65a1.13,1.13,0,0,0-1-.29.64.64,0,0,0-.16.37.84.84,0,0,0,.53.17c0,.37,0,.74.05,1.11a.91.91,0,0,1-.5.08l-.12.21v.21a6.11,6.11,0,0,0,1.94.08l.08-.37,0-.08c-.26,0-.73,0-.87-.17a.78.78,0,0,1,0-.62,1,1,0,0,1,1.2-.33c.17-.08.18-.05.25-.25C38.49,47.16,37.93,47.53,37.41,47.65Zm4,1.44c-.21-.38,0-1.09-.12-1.6l0-.09-1,0-.12,0,0,.42.62.08A3,3,0,0,1,40.8,49l-.83.17v.29a3.93,3.93,0,0,0,2.06.08l.13-.08,0-.21C42,49.06,41.7,49.07,41.37,49.09Zm7.8,0-.66-.09c-.29-.22,0-1.14-.17-1.52s-.67-.17-.94-.17a.53.53,0,0,0-.21.29l0,.17.62.08A3,3,0,0,1,47.93,49a1.66,1.66,0,0,1-.74.08l-.12.21,0,.25,2.06,0a.32.32,0,0,0,0-.33Zm2-.17-.21-.29c0-.72.44-.83,1.16-.78l.41.45h.25a2.25,2.25,0,0,0,.08-.86l-.29-.13c-.61.42-1.74-.39-2.1.91-.24.87.74,1.49,1.57,1.32l.78-.37.08-.21-.12-.2C52.25,48.83,51.84,49.15,51.15,49Zm5.2,0c0-.51,0-1,0-1.52a1.14,1.14,0,0,0-.83-.05l0,.33.41.17c.11.57-.13,1.62-.9,1.11-.32-.21-.09-1.12-.21-1.52-.1-.17-.22-.18-.5-.17l-.28.08-.05.33.33.13.17,1.24c.19.42,1.66.66,2.23.41l.12-.08,0-.21C56.63,49.11,56.51,49.08,56.35,49Zm6.1-1.65c-.51.24-.92.22-1.15.74-.69,1.37,1.49,1.81,2.27,1.16C64.56,48.43,63.32,47.43,62.45,47.36Zm.87,1.36c-.24.51-1,.39-1.44.21a.82.82,0,0,1-.09-.78l.46-.25c.64,0,1,.08,1.15.49Zm3.79.37c-.17-.37,0-1.14-.12-1.56-.14-.23-.49-.18-.78-.13l0,.42.37.12c0,.27,0,.55,0,.82l-.25.21a.59.59,0,0,1-.66,0c-.28-.21-.17-1.21-.21-1.52a1,1,0,0,0-.61-.13c-.15.11-.29.16-.21.37s.26.15.37.25c.1.62-.12,1.23.41,1.49.34.26,1.36.13,1.9.12l.08-.12v-.21C67.32,49.12,67.3,49.13,67.11,49.09Zm3.39-.61c.09-.29.3-.58.16-.95-.08-.14-.06-.13-.25-.17-.47.29-1.48-.19-1.77.46-.41.92,1.06.74,1.57.94h.08l0,.25a1.17,1.17,0,0,1-1.32-.33h-.25a2.32,2.32,0,0,0-.08.87,2.5,2.5,0,0,0,2.19-.41A.54.54,0,0,0,70.5,48.48Zm-1.24-.17-.12-.12V48.1l.16-.16.33-.08.54.16.08.29A2.06,2.06,0,0,1,69.26,48.31Zm8.13-.91c-.14.29,0,.38.08.62l-.46.74h-.16a1.85,1.85,0,0,1-.5-.78c.11-.14.23-.26.13-.49s-.56-.15-.87-.13l-.16.08,0,.33c.54.29,1.59,1.53.82,2.07h-.62l-.08.12,0,.25.12.08h1.45l.12,0v-.33l-.17,0c-.13-.33.91-2,1.37-2l0-.37A1.93,1.93,0,0,0,77.39,47.4Zm7.34,0c-.57.46-1.45-.37-1.94.74s.88,1.55,1.69,1.37l0,.2c-.27.37-1,0-1.36.13l-.12.08v.2a2.16,2.16,0,0,0,1.81.05,6,6,0,0,0,.29-2.19l.33-.08a.5.5,0,0,0,0-.46Zm-.17,1.36a.69.69,0,1,1-1.32-.41c.14-.29.34-.31.62-.45.36.11.53.17.7.45ZM91,47.36c-.44.21-.92.25-1.11.7-.42,1,.71,1.86,1.77,1.49C93.11,49.05,92.57,47.43,91,47.36ZM92,48.68c-.22.5-.91.45-1.44.29-.17-.24-.35-.52-.09-.78s.36-.23.58-.33a2.13,2.13,0,0,1,.87.24A.77.77,0,0,1,92,48.68Zm13.45-1.32c-.48.2-1,.28-1.16.74-.44,1,.83,1.75,1.78,1.45C107.58,49.07,106.88,47.56,105.44,47.36Zm.86,1.49a1.08,1.08,0,0,1-1.52-.13l0-.45a1.76,1.76,0,0,1,.74-.41C106.05,47.86,106.72,48.27,106.3,48.85Zm10.44.2c-.2-.14-.21-1.14-.12-1.44-.13-.24-.39-.26-.75-.25l-.41.08,0,.33.62.13a3.71,3.71,0,0,1,.12,1.07,2.43,2.43,0,0,1-.78.17l-.08.16c0,.11,0,.13,0,.25l2,0a.36.36,0,0,0,0-.45Zm4.37,0a8.17,8.17,0,0,1-.24-1.44c-.61-.37-1.44-.14-2.11-.29l-.2.08,0,.33.38.13A3,3,0,0,1,119,49l-.41.25,0,.25,0,.08,1.19,0a.32.32,0,0,0,0-.33c-.08-.15-.08-.14-.29-.17a1.93,1.93,0,0,1-.08-.94,1,1,0,0,1,1-.21l.12,0c0,.34,0,.69.05,1-.27.12-.43.08-.46.46a2.76,2.76,0,0,0,1.2.12l.08-.12v-.21C121.28,49.12,121.3,49.14,121.11,49.09Zm3.1-1.73c-.53.38-1.42-.19-1.9.58-.69,1.1.64,1.83,1.57,1.53h0l0,.16v0c-.44.27-.84.13-1.44.08l-.09.38a2.31,2.31,0,0,0,1.86-.05,7.14,7.14,0,0,0,.21-2.14l.37-.12,0-.42ZM124,48.72a.71.71,0,0,1-.41.37c-.6,0-.91-.17-.91-.74a1.66,1.66,0,0,1,.66-.49c.38.07.65.17.7.57A.3.3,0,0,1,124,48.72Zm7.18-1.19,0,.16a.49.49,0,0,0,.33.21l-.13.7-.16.08a1.28,1.28,0,0,1-.29-.7.55.55,0,0,0-.29-.12l-.37.78-.12.08a1.28,1.28,0,0,1-.25-.78l.33-.12v-.33a1.49,1.49,0,0,0-.74-.13l-.25,0-.13.29c.21.32.7,1.72.87,1.86h.33c.1-.26.19-.52.29-.79l.12-.08a2.42,2.42,0,0,1,.37.83.35.35,0,0,0,.33,0c.32-.2.53-1.4.87-1.78v-.28C132,47.34,131.35,47.28,131.14,47.53Zm13.73-.13-.41.17a1.87,1.87,0,0,0-.78-.21l-.17.21v.2l.37.13v1.81c-.08.14-.17.15-.33.21l0,.29a3.67,3.67,0,0,0,1.49.12l.08-.12,0-.25-.62-.12-.12-.17,0-.2c.56-.2,1.26.46,1.82-.46a1.42,1.42,0,0,0,0-.82A1.17,1.17,0,0,0,144.87,47.4ZM144.75,49l-.29-.2a1.79,1.79,0,0,1,0-.58,3.44,3.44,0,0,1,.66-.37,1.4,1.4,0,0,1,.7.29C146,48.85,145.49,49.3,144.75,49Zm4.62-1.32a2.22,2.22,0,0,0-.91-.33c-.35.16-.69.14-1,.37v0c.3.24.82.11,1.24.17-.8.29-1.17,0-1.48.78.08,1.34,1.06.59,1.65.7a2.87,2.87,0,0,0,.91.17l.08-.37-.37-.17ZM148,49.05l-.21-.2.13-.25.2-.08h.79l.08.29A1.13,1.13,0,0,1,148,49.05Zm11.34-1.36-.16-.29-.7,0-.17,0-.08.42.41.08c.23.15.19.68.17,1.07a4.15,4.15,0,0,1-.5.17l-.08.08,0,.29a4.05,4.05,0,0,0,1.9,0c.13-.09.12-.1.12-.33a1.7,1.7,0,0,0-.87-.13,1.8,1.8,0,0,1-.08-.74c.62-.46.67-.31,1.4-.37l.09,0a.57.57,0,0,0-.17-.45A1.78,1.78,0,0,0,159.31,47.69ZM86.59,49.26a1.37,1.37,0,0,0,2.31-1.2,1.77,1.77,0,0,0-1.57-.66C86.74,47.68,85.69,48.48,86.59,49.26Zm1.89-.87-.08.33c-.24.54-1.26.44-1.57,0-.15-.68.24-.71.7-.9A1.08,1.08,0,0,1,88.48,48.39Zm20.3-1c-.37.23-.8.31-1,.75-.43,1.23,1.27,1.79,2.15,1.23C111.17,48.62,110.16,47.33,108.78,47.4Zm1.11,1.41a1.34,1.34,0,0,1-1.52,0c-.08-.24-.13-.48,0-.66s.35-.22.62-.33a2.56,2.56,0,0,1,.82.24l.13.29Zm25.29.28c-.17-.38,0-1.09-.25-1.4s-.62-.31-1.11-.29l-.66.29v.17l.66.08a1.72,1.72,0,0,0-.91.66l0,.45c.37,1,1.24.21,1.65.37a1.81,1.81,0,0,0,.83.17l.12-.17-.08-.2C135.38,49.1,135.38,49.11,135.18,49.09ZM134.4,48a.55.55,0,0,1-.33-.08A.45.45,0,0,1,134.4,48Zm.16.78a.86.86,0,0,1-.95.29l-.2-.12v-.17l.33-.24h.78l.08.08ZM152,47.4l-.45.17a2.36,2.36,0,0,0-.87-.17l-.08.29a.89.89,0,0,0,.41.25c0,.59,0,1.18,0,1.77l-.33.17-.08.37a4.45,4.45,0,0,0,1.49.08l.12-.33v0a1.32,1.32,0,0,0-.66-.12l-.08-.42c.36,0,.61.28,1.07.17a1.17,1.17,0,0,0,.82-1.49A1.27,1.27,0,0,0,152,47.4Zm.7,1.61a.93.93,0,0,1-1.19-.37v-.33a1.52,1.52,0,0,1,.7-.45l.58.16.2.37C153,48.76,152.87,48.81,152.71,49Zm2.44-.12,0-.17v0l1.89-.12c.19-.86-.57-1.2-1.44-1.16-.4.22-.85.33-1,.79-.52,1.64,1.86,1.52,2.52,1C156.89,48.83,155.74,49.12,155.15,48.89Zm.57-1a1.08,1.08,0,0,1,.54.12h.08v.12l-.9,0-.17,0C155.4,47.94,155.51,48,155.72,47.86Z"/></g></svg>