<svg xmlns="http://www.w3.org/2000/svg" viewBox="0 0 200 65"><g data-name="#finium"><path d="M40.9 12a20.5 20.5 0 1 0 20.5 20.5A20.53 20.53 0 0 0 40.9 12m18 20.5a18 18 0 0 1-.76 5.17h-16V27.33h16a18 18 0 0 1 .76 5.17m-18-18a18 18 0 0 1 16.29 10.34H24.62A18 18 0 0 1 40.9 14.5m-18 18a18 18 0 0 1 .76-5.17h16v23.13a18 18 0 0 1-16.75-18m19.25 18V40.17h15a18.06 18.06 0 0 1-15 10.29m34.88-19.39h6.71v3.55h-6.71v5.55h-4.18V24.84h11.46v3.52h-7.28zm13.94-6.24h4.18v15.33h-4.18zm26.38 15.34H115l-8.27-7.87v7.87h-4.17V24.84h2.38l8.25 8.08v-8.08h4.17zm7.39-15.34h4.18v15.33h-4.18zm49.48 15.34h-4.07v-7.71l-3.64 4.02h-1.31l-3.65-4.02v7.71h-4.07V24.84h2.6l5.77 6.47 5.79-6.47h2.58zm-23.99-6.9a7.2 7.2 0 0 1-1.9 5.26 6.7 6.7 0 0 1-5 2 7 7 0 0 1-5.17-2 7.1 7.1 0 0 1-1.95-5.27v-8.43h4.18v8.26a3.8 3.8 0 0 0 .8 2.58 2.67 2.67 0 0 0 2.14.93 2.43 2.43 0 0 0 2-.93 4 4 0 0 0 .75-2.58v-8.26h4.19Zm28.94-8.03a1.38 1.38 0 0 1 .42 1 1.36 1.36 0 0 1-.42 1 1.34 1.34 0 0 1-1 .41 1.4 1.4 0 0 1-1.43-1.43 1.4 1.4 0 0 1 1.43-1.44 1.38 1.38 0 0 1 1 .41m-.11 1.94a1.28 1.28 0 0 0-1.8-1.83 1.28 1.28 0 0 0 1.8 1.83m-.41-.91a.5.5 0 0 1-.32.14l.51.5h-.2l-.5-.49h-.32v.49h-.16v-1.32h.58a.6.6 0 0 1 .39.12.4.4 0 0 1 .14.32.37.37 0 0 1-.12.29m-.41 0a.46.46 0 0 0 .27-.08.3.3 0 0 0 .1-.22.27.27 0 0 0-.1-.22.45.45 0 0 0-.27-.07h-.42v.59Z" data-name="Layer 1" style="fill:#1f1f1f"/></g></svg>