<svg xmlns="http://www.w3.org/2000/svg" viewBox="0 0 200 65"><defs><style>.cls-1{fill:#1f1f1f;}</style></defs><g id="_baux" data-name="#baux"><polygon class="cls-1" points="102.94 13 102.32 17.1 107.85 17.1 108.48 13 102.94 13"/><path class="cls-1" d="M102.27,29.25a5.69,5.69,0,0,0,1.32-.17,4.09,4.09,0,0,0,1.29-.6A4,4,0,0,0,106,27.36a4.45,4.45,0,0,0,.61-1.76l1.1-7.24h-5.53l-1.65,10.89Z"/><path class="cls-1" d="M99.25,27.36a4.45,4.45,0,0,0,.61-1.76l1.1-7.24H95.43l-1.14,7.48a4.36,4.36,0,0,1-.62,1.76,3.8,3.8,0,0,1-1.06,1.12,4.23,4.23,0,0,1-1.09.53h4.06a5.68,5.68,0,0,0,1.31-.17,4,4,0,0,0,1.29-.6,3.83,3.83,0,0,0,1.07-1.12"/><polygon class="cls-1" points="96.24 13 95.62 17.1 101.16 17.1 101.78 13 96.24 13"/><path class="cls-1" d="M49,37.28l-.78.15a1.2,1.2,0,0,0-.6.28.69.69,0,0,0-.19.42,3.77,3.77,0,0,0,0,.63v8.83A4.81,4.81,0,0,1,47,49.72a3.84,3.84,0,0,1-1.08,1.35,4.43,4.43,0,0,1-1.46.72,6.08,6.08,0,0,1-1.55.21,7.36,7.36,0,0,1-2.39-.33,4.22,4.22,0,0,1-1.5-.85,2.85,2.85,0,0,1-.8-1.11,3.14,3.14,0,0,1-.23-1.15,2.12,2.12,0,0,1,.07-.51,2,2,0,0,1,.28-.56,1.63,1.63,0,0,1,.53-.47,1.78,1.78,0,0,1,.89-.19,2,2,0,0,1,.9.18,1.54,1.54,0,0,1,.52.44,1.6,1.6,0,0,1,.23.52,1.91,1.91,0,0,1,.06.41c0,.21,0,.36,0,.46a2.57,2.57,0,0,0,0,.44,1.07,1.07,0,0,0,.41,1,1.48,1.48,0,0,0,.87.28,2,2,0,0,0,.67-.12,1.29,1.29,0,0,0,.61-.56,1.58,1.58,0,0,0,.22-.61,5.57,5.57,0,0,0,.06-.89c0-.28,0-.6,0-1s0-.74,0-1.16V38.76a3.77,3.77,0,0,0,0-.63.69.69,0,0,0-.2-.42,1.2,1.2,0,0,0-.6-.28l-.78-.15a.32.32,0,0,1-.29-.33v-.52c0-.21.12-.32.35-.32h6.3c.24,0,.35.11.35.32V37a.32.32,0,0,1-.29.33"/><path class="cls-1" d="M67,37.23a.6.6,0,0,1-.24.09,1.73,1.73,0,0,0-1.22.69,2.21,2.21,0,0,0-.41,1.35V47a6.86,6.86,0,0,1-.27,2,4,4,0,0,1-.9,1.59,4.13,4.13,0,0,1-1.66,1.08,7.13,7.13,0,0,1-2.58.4,15.69,15.69,0,0,1-2.91-.24A5.71,5.71,0,0,1,54.67,51a3.59,3.59,0,0,1-1.31-1.48,5,5,0,0,1-.45-2.23V38.76a3.77,3.77,0,0,0,0-.63.69.69,0,0,0-.2-.42,1.2,1.2,0,0,0-.6-.28l-.78-.15A.32.32,0,0,1,51,37v-.52c0-.21.12-.31.35-.31h6.3c.24,0,.35.1.35.31V37a.32.32,0,0,1-.29.33l-.78.15a1.12,1.12,0,0,0-.6.28.68.68,0,0,0-.19.41,4,4,0,0,0,0,.64v8.38a6.77,6.77,0,0,0,.1,1.14,2.73,2.73,0,0,0,.48,1.14,2.77,2.77,0,0,0,1.09.87,4.58,4.58,0,0,0,2,.35,5.38,5.38,0,0,0,2-.31,3,3,0,0,0,1.2-.84,2.92,2.92,0,0,0,.6-1.19,5.81,5.81,0,0,0,.17-1.39V39.36A2.27,2.27,0,0,0,63.29,38a1.73,1.73,0,0,0-1.22-.69l-.25-.09a.2.2,0,0,1-.09-.2v-.6c0-.21.12-.31.36-.31h4.64c.23,0,.35.1.35.31V37a.2.2,0,0,1-.09.2"/><path class="cls-1" d="M84.87,37.23a.67.67,0,0,1-.24.09A1.75,1.75,0,0,0,83.4,38a2.27,2.27,0,0,0-.4,1.35V51.53a.28.28,0,0,1-.32.31h-.62a.4.4,0,0,1-.26-.07l-.19-.2-9.5-11.39v8.24a2.21,2.21,0,0,0,.41,1.35,1.67,1.67,0,0,0,1.22.69l.24.09q.09,0,.09.21v.6c0,.21-.12.31-.35.31H69.07c-.23,0-.35-.1-.35-.31v-.6q0-.16.09-.21l.24-.09a1.67,1.67,0,0,0,1.23-.69,2.27,2.27,0,0,0,.41-1.35V39.5a2,2,0,0,0-.53-1.43,2.14,2.14,0,0,0-1.38-.65c-.22,0-.33-.13-.33-.31v-.68c0-.21.11-.31.33-.31h3.74a.73.73,0,0,1,.58.31l8.48,10.13v-7.2A2.27,2.27,0,0,0,81.17,38a1.73,1.73,0,0,0-1.23-.69.67.67,0,0,1-.24-.09.2.2,0,0,1-.09-.2v-.6c0-.21.12-.31.35-.31h4.65c.23,0,.35.1.35.31V37a.2.2,0,0,1-.09.2"/><path class="cls-1" d="M98.77,50.74a.85.85,0,0,1-.31.23,10.37,10.37,0,0,1-2.57.8,17,17,0,0,1-2.82.23,9.2,9.2,0,0,1-3.14-.52A6.77,6.77,0,0,1,87.44,50a7.28,7.28,0,0,1-1.66-2.53,10.45,10.45,0,0,1,0-7,7.37,7.37,0,0,1,1.66-2.53,6.77,6.77,0,0,1,2.49-1.53,9.2,9.2,0,0,1,3.14-.52,15.93,15.93,0,0,1,2.82.24,10.35,10.35,0,0,1,2.57.79.75.75,0,0,1,.31.24.85.85,0,0,1,.08.44v3.11a.51.51,0,0,1-.08.28.31.31,0,0,1-.27.11h-.66a.27.27,0,0,1-.27-.14,1.31,1.31,0,0,1-.12-.28c-.14-.45-.29-.88-.44-1.3a3.42,3.42,0,0,0-.67-1.13,3.15,3.15,0,0,0-1.21-.79,5.83,5.83,0,0,0-2.06-.3,3.64,3.64,0,0,0-3.34,1.67,9.83,9.83,0,0,0-1,5.13,9.83,9.83,0,0,0,1,5.13,3.64,3.64,0,0,0,3.34,1.68,5.58,5.58,0,0,0,2.06-.31,3.15,3.15,0,0,0,1.21-.79A3.32,3.32,0,0,0,97,48.51c.15-.42.3-.85.44-1.29a1.13,1.13,0,0,1,.12-.28.27.27,0,0,1,.27-.15h.66a.29.29,0,0,1,.27.12.46.46,0,0,1,.08.27v3.11a.92.92,0,0,1-.08.45"/><path class="cls-1" d="M116.51,51.67h-6.88c-.22,0-.33-.1-.33-.29v-.49c0-.18.12-.29.35-.33a2.41,2.41,0,0,0,.77-.24.52.52,0,0,0,.3-.48.79.79,0,0,0-.07-.37,3.78,3.78,0,0,0-.24-.35l-3.74-4.47a.55.55,0,0,0-.39-.21.38.38,0,0,0-.22.07.32.32,0,0,0-.11.26V49a5.57,5.57,0,0,0,0,.63.69.69,0,0,0,.2.41,1.2,1.2,0,0,0,.6.29c.27.06.53.1.78.14a.32.32,0,0,1,.29.33v.53c0,.21-.12.31-.35.31h-6.3c-.23,0-.35-.1-.35-.31v-.53a.32.32,0,0,1,.29-.33c.25,0,.51-.08.78-.14a1.2,1.2,0,0,0,.6-.29.69.69,0,0,0,.2-.41,5.57,5.57,0,0,0,0-.63V38.76a5.27,5.27,0,0,0,0-.63.69.69,0,0,0-.2-.42,1.2,1.2,0,0,0-.6-.28l-.78-.15a.32.32,0,0,1-.29-.33v-.52c0-.21.12-.31.35-.31h6.3c.23,0,.35.1.35.31V37a.32.32,0,0,1-.29.33l-.78.15a1.2,1.2,0,0,0-.6.28.69.69,0,0,0-.2.42,5.27,5.27,0,0,0,0,.63V42.9a.29.29,0,0,0,.11.24.35.35,0,0,0,.22.09.32.32,0,0,0,.2-.06l.19-.15,4.22-4a1.31,1.31,0,0,0,.53-.87.53.53,0,0,0-.24-.47,1.89,1.89,0,0,0-.75-.23c-.22,0-.33-.13-.33-.31v-.68c0-.21.11-.31.33-.31h5.65c.22,0,.34.1.34.31V37c0,.19-.12.31-.34.35l-.46.1a4.25,4.25,0,0,0-.63.17,4.19,4.19,0,0,0-.69.31,3.37,3.37,0,0,0-.65.47L109,42.78l5.36,6.15a6.35,6.35,0,0,0,1.28,1.19,2.08,2.08,0,0,0,.88.34q.33,0,.33.33v.57c0,.21-.11.31-.33.31"/><path class="cls-1" d="M131.81,51.67H119c-.23,0-.35-.1-.35-.31v-.53a.32.32,0,0,1,.29-.33c.25,0,.51-.08.78-.14a1.2,1.2,0,0,0,.61-.29.75.75,0,0,0,.19-.41,3.92,3.92,0,0,0,0-.63V38.76a3.77,3.77,0,0,0,0-.63.75.75,0,0,0-.19-.42,1.2,1.2,0,0,0-.61-.28l-.78-.15a.32.32,0,0,1-.29-.33v-.52c0-.21.12-.31.35-.31h12.7c.22,0,.33.09.33.29v4.12c0,.19-.11.29-.33.29H131a.32.32,0,0,1-.29-.15.69.69,0,0,1-.14-.3,6.58,6.58,0,0,0-.75-1.59,2.63,2.63,0,0,0-2-1.24,12.71,12.71,0,0,0-1.29-.06h-1.67a2.6,2.6,0,0,0-1.05.14.58.58,0,0,0-.25.56v4.88h.68c.28,0,.54,0,.76,0a1.4,1.4,0,0,0,.6-.22,1.63,1.63,0,0,0,.5-.51,3.72,3.72,0,0,0,.41-.93,1.1,1.1,0,0,1,.15-.28.36.36,0,0,1,.3-.14h.6c.24,0,.35.1.35.31v4.92c0,.19-.11.29-.35.29H127a.34.34,0,0,1-.3-.15.85.85,0,0,1-.15-.3,3.4,3.4,0,0,0-.41-.91,1.7,1.7,0,0,0-.5-.5,1.38,1.38,0,0,0-.6-.2,5.82,5.82,0,0,0-.76,0h-.68v5.15a.6.6,0,0,0,.25.56,2.6,2.6,0,0,0,1.05.14h1.85a5.36,5.36,0,0,0,1.26-.13,2.5,2.5,0,0,0,1-.48,3.6,3.6,0,0,0,.86-1,9.12,9.12,0,0,0,.74-1.66,1,1,0,0,1,.13-.28.36.36,0,0,1,.3-.14h.71c.24,0,.36.1.36.31v4.55c0,.19-.12.29-.36.29"/><path class="cls-1" d="M143.62,40.49a7.36,7.36,0,0,0-.07-1,2.3,2.3,0,0,0-.4-1,2.41,2.41,0,0,0-1-.77,4.1,4.1,0,0,0-1.77-.31h-.21a2.6,2.6,0,0,0-1,.14.6.6,0,0,0-.25.56v5.4h1.61a3.28,3.28,0,0,0,2.37-.73,3,3,0,0,0,.74-2.28M149,51.36c0,.21-.11.31-.33.31h-3.55c-.16,0-.31-.11-.47-.33L142.18,48l-1.34-1.82-.68-.9c-.14-.2-.27-.32-.39-.34l-.29,0h-.56V49a4,4,0,0,0,0,.64.68.68,0,0,0,.19.41,1.2,1.2,0,0,0,.6.29l.78.14a.31.31,0,0,1,.29.33v.53c0,.21-.11.31-.35.31h-6.24c-.23,0-.35-.1-.35-.31v-.53a.32.32,0,0,1,.29-.33c.25,0,.51-.08.78-.14a1.24,1.24,0,0,0,.61-.29.75.75,0,0,0,.19-.41,4,4,0,0,0,0-.64V38.76a3.77,3.77,0,0,0,0-.63.75.75,0,0,0-.19-.42,1.24,1.24,0,0,0-.61-.28l-.78-.15a.32.32,0,0,1-.29-.33v-.52c0-.21.12-.32.35-.32h7.51a8,8,0,0,1,2.48.33,4.33,4.33,0,0,1,1.61.87,3.14,3.14,0,0,1,.88,1.33,5.36,5.36,0,0,1,.26,1.67,3.38,3.38,0,0,1-.3,1.42,3.74,3.74,0,0,1-.82,1.18,4.48,4.48,0,0,1-1.21.86,5,5,0,0,1-1.51.45c-.17,0-.25.11-.25.24a.28.28,0,0,0,.13.23,6.08,6.08,0,0,1,.7.68c.27.3.56.63.85,1l.91,1.11.87,1.08c.26.34.5.63.71.88a5.7,5.7,0,0,0,.44.52,1.48,1.48,0,0,0,.52.38,2.7,2.7,0,0,0,.63.14c.22,0,.33.13.33.31Z"/><path class="cls-1" d="M162.06,46.89a4.69,4.69,0,0,1-.47,2.1,4.85,4.85,0,0,1-1.33,1.6,6.17,6.17,0,0,1-2,1,8.3,8.3,0,0,1-2.54.37,16.83,16.83,0,0,1-2.71-.21,16.49,16.49,0,0,1-2.47-.6c-.17-.06-.27-.12-.3-.19a1.14,1.14,0,0,1,0-.42V46.91a.29.29,0,0,1,.33-.32h.78a.22.22,0,0,1,.24.15,1.71,1.71,0,0,1,.09.3,9.07,9.07,0,0,0,.56,1.53,3.36,3.36,0,0,0,2,1.83,5,5,0,0,0,1.65.24,5.64,5.64,0,0,0,1.16-.12,3,3,0,0,0,1-.41,2.37,2.37,0,0,0,.75-.79,2.57,2.57,0,0,0,.29-1.27,2.48,2.48,0,0,0-.14-.87,1.76,1.76,0,0,0-.35-.6,2,2,0,0,0-.5-.41,5.25,5.25,0,0,0-.59-.28,12.27,12.27,0,0,0-1.42-.5q-.8-.22-1.59-.48c-.53-.18-1.05-.38-1.56-.61a5.05,5.05,0,0,1-1.36-.85,4,4,0,0,1-.94-1.2,3.65,3.65,0,0,1-.36-1.68,4.79,4.79,0,0,1,.43-2.09,4.15,4.15,0,0,1,1.18-1.5,5.13,5.13,0,0,1,1.78-.89,8,8,0,0,1,2.25-.31c.41,0,.85,0,1.29.06s.89.1,1.33.18.84.17,1.23.28a8.15,8.15,0,0,1,1,.36,1,1,0,0,1,.32.2.76.76,0,0,1,.07.42v2.94a.39.39,0,0,1-.08.25.31.31,0,0,1-.27.1h-.74a.22.22,0,0,1-.24-.15l-.09-.3a9.8,9.8,0,0,0-.57-1.35,3.06,3.06,0,0,0-.74-.94,2.94,2.94,0,0,0-1-.56,5.38,5.38,0,0,0-1.49-.18,2.66,2.66,0,0,0-1.92.66,2.12,2.12,0,0,0-.69,1.65,2.63,2.63,0,0,0,.11.76,1.53,1.53,0,0,0,.45.67,3.85,3.85,0,0,0,1,.62,11.82,11.82,0,0,0,1.77.61l1.8.54a7.42,7.42,0,0,1,1.78.83,4.57,4.57,0,0,1,1.35,1.35,3.86,3.86,0,0,1,.53,2.11"/></g></svg>