<svg xmlns="http://www.w3.org/2000/svg" viewBox="0 0 200 65"><defs><style>.cls-1{fill:#1f1f1f;}</style></defs><g id="Layer_1-2" data-name="Layer 1"><path class="cls-1" d="M25.25,17l.2.06c.5,1.61,1.95,2.44,2.88,3.63a7.34,7.34,0,0,0,1.52,1.75L27.36,25.2a6.79,6.79,0,0,1-1.46-1.72l.91-1v-.06l-1.43-1.59h-.13l-1.39,1.56,0,.16c1,1.13,2,2.27,3,3.4.28.31.77.61.91,1a7.12,7.12,0,0,0-1.46,1.55L26,28.21l-5.19-5.74,1.56-1.71L24.77,18Z"/><path class="cls-1" d="M31.38,24.16c1.58,1.66,2.9,3.64,4.89,4.89a.54.54,0,0,1-.07.26c-1.32.43-1.77,1.85-2.78,2.59h0l-1.45-1.68.94-1v-.1l-1.46-1.55h-.13L27.36,31.9l-.1,0C27,31.28,26,30.76,25.9,30.15Z"/><path class="cls-1" d="M19.23,24.19c.59.29,1.44,1.58,1.91,2.11.15.17.61.48.52.68-.3.58-1.19.91-1.4,1.55l-.38-.35-.59-.65h-.13l-1.39,1.55c.07.28.23.29.39.46a37.39,37.39,0,0,1,2.62,3c.17.22,1,.9.88,1.1l-1.4,1.62a10.2,10.2,0,0,1-1.49-1.65,24,24,0,0,0-4.43-4.41L14.4,29c1-.34,1.25-1.18,2-1.75A26,26,0,0,0,19.23,24.19Z"/><path class="cls-1" d="M86.74,25.62v7.67c0,1.38-.12,2.6.84,3l0,.09c-.59,0-2.49.21-3-.06.25-.4.6-.6.75-1.14a12.15,12.15,0,0,0,.06-2.78c0-1.57.27-4.88-.19-6l-.58-.75,0-.06Z"/><path class="cls-1" d="M23.25,26.46c.5.52,1,1,1.52,1.55-1.16,1.3-2.31,2.6-3.47,3.89a8,8,0,0,1-1.49-1.72C21.05,29.06,22.05,27.64,23.25,26.46Z"/><path class="cls-1" d="M58.1,28.47l0,1.42.42-.42a7.89,7.89,0,0,1,2-1c2.85-.73,4.67.51,5,2.82s-.65,3.63.84,5l-.06.09-2.89,0,0-.06a2.09,2.09,0,0,0,.71-.94,10.38,10.38,0,0,0-.19-4.83A2.34,2.34,0,0,0,62,29.47a3.89,3.89,0,0,0-1.66.2c-1.78.54-2.07,1.62-2.07,4,0,.68,0,1.36.07,2,.1.35.42.43.55.71a10,10,0,0,1-2.82-.06l.1-.13a1.29,1.29,0,0,0,.58-.62A20.56,20.56,0,0,0,56.87,30c-.15-.53-.62-.73-.78-1.16A9.06,9.06,0,0,1,58.1,28.47Z"/><path class="cls-1" d="M108.89,28.37c1.66,0,3.12.36,4.5.23l-.48,1.49c-1.34-.22-3.21-.89-4.89-.42-.52.14-1.39.37-1.17,1.19s1.28.64,2,.78c1.88.34,5.29.15,4.67,2.88-.39,1.7-2.94,2.48-5.25,2.08a8,8,0,0,0-3-.33c-.09-.49-.17-1-.26-1.49v0l1.23.29c1.2.35,6.28,1.2,5.77-1.1-.26-1.15-2.8-.84-4-1.1a7.65,7.65,0,0,1-1.81-.55c-1.69-.9-.78-2.9.52-3.5C107.45,28.5,108.19,28.66,108.89,28.37Z"/><path class="cls-1" d="M121.75,28.37c1.68,0,3,.27,4.5.23l-.45,1.49h-.16a8.15,8.15,0,0,0-4.76-.42c-.51.13-1.34.38-1.14,1.19s1.28.64,2,.78c2,.36,5.42.2,4.64,3-.39,1.39-2.82,2.33-4.93,2a10.9,10.9,0,0,0-3.24-.36L118,34.75h.13a11,11,0,0,0,5.22.68c.79-.14,1.9-.33,1.65-1.46-.17-.78-1-.72-1.85-.87-1.47-.26-3.07-.25-4.14-.91-1.58-1-.38-2.95.78-3.43C120.37,28.51,121.09,28.62,121.75,28.37Z"/><path class="cls-1" d="M152.85,28.47l0,1.42.29-.26a2.64,2.64,0,0,1,1-.71c2-1.14,5-.58,5.86,1.26.55,1.25,0,3.27.29,4.83.14.77.59.87.78,1.36l-.07,0c-.58,0-2.41.2-2.88-.06l.62-.75a5.7,5.7,0,0,0,.19-2.1c0-2.54,0-3.61-2.2-4a3.52,3.52,0,0,0-1.46.13c-1.6.4-2.3,1.22-2.3,3.24,0,1.36-.23,3,.62,3.5l0,.06-2.75,0v-.1a1.72,1.72,0,0,0,.65-.71,19,19,0,0,0,.1-5.6c-.15-.49-.64-.71-.75-1.14A16.79,16.79,0,0,1,152.85,28.47Z"/><path class="cls-1" d="M51.46,28.63c.09.53.17,1.06.26,1.59h-.1a9.8,9.8,0,0,0-4-.49l-1.75,0v2.14a42.62,42.62,0,0,0,4.6-.13v.09a2.64,2.64,0,0,1-.71,1c-.55.31-3,.11-3.89.09l0,2.4a23.84,23.84,0,0,0,4.73-.1c.55-.12,1-.43,1.46-.55v.17l-.39,1.55H43.72v0l.06-.1c.91-.44.59-3.67.59-5.08V29.63c-.12-.46-.49-.63-.65-1Z"/><path class="cls-1" d="M100.11,28.63c.09.52.18,1,.26,1.55l-.06,0c-1.4-.66-3.8-.49-5.87-.49,0,.7,0,1.4,0,2.11,1.31,0,3.57.22,4.56-.17l0,.13c-.38.2-.37.93-1,1.1l-3.66,0V35.3a23.82,23.82,0,0,0,4.73-.1c.52-.11,1.08-.5,1.46-.55v0l-.42,1.71H94.48c-.52,0-1.75.19-2.11-.06l.16-.2c.59-.28.49-1.26.49-2.13s.18-4.24-.13-4.77l-.55-.58,0,0Z"/><path class="cls-1" d="M177.56,28.63l7.88,0,.22,1.56h-.09a8.34,8.34,0,0,0-3.31-.49v5.54c.1.52.5.7.65,1.1l0,0a12.06,12.06,0,0,1-2.79-.06l.16-.2c.79-.44.5-5,.49-6.41a12.59,12.59,0,0,0-3.37.49l0,0Z"/><path class="cls-1" d="M137.07,28.66l2.69,0a1.61,1.61,0,0,0-.58.68v3.18l2.95-2.37a4,4,0,0,0,1.13-.94l.07-.58,3,0-.07.1a15.27,15.27,0,0,0-3.85,2.75,6.72,6.72,0,0,0,1.29,1.62c.93,1.09,1.61,2.44,2.95,3.11l0,.1h-.13l-2.72,0,0-.09c.36-.56-1.51-2.53-1.91-3-.17-.19-.54-.85-.75-.75L139.15,34a4.38,4.38,0,0,0,.16,1.94c.11.17.33.22.42.42a11.5,11.5,0,0,1-2.66-.06l.23-.26c.44-.28.42-.95.42-1.68V29.7C137.62,29.23,137.15,29,137.07,28.66Z"/><path class="cls-1" d="M79.09,35l0-9.39H77l0,.09c.2.28.44.36.59.75a10.68,10.68,0,0,1,.19,3.27c-.21-.09-.29-.32-.45-.45A4,4,0,0,0,76,28.6a5,5,0,0,0-5.73,1.75,5.84,5.84,0,0,0-.52,2A3.8,3.8,0,0,0,70,33.91a3.71,3.71,0,0,0,1.07,1.75c1.58,1.43,5.57,1.23,6.67-.49l.1,0c.28,1.27.35,1.3,2,1.26C79.77,36.06,79.22,35.67,79.09,35Zm-3.53.39c-2.88.81-5.45-1.61-4.08-4.37a2.89,2.89,0,0,1,1.91-1.43l.68-.1c1.64,0,2.68.39,3.27,1.4A3.07,3.07,0,0,1,75.56,35.4Z"/><path class="cls-1" d="M174.52,32.22a4.62,4.62,0,0,0-.32-1.55c-.91-1.6-2.35-2.34-5-2.3l-.93.13a4.5,4.5,0,0,0-3.11,2.43c-1.82,3.91,2.66,6.83,6.47,5.44C173.1,35.83,174.88,34.45,174.52,32.22Zm-3.89,3.18c-2.75.66-5.39-1.43-4.11-4.15a3.15,3.15,0,0,1,2-1.58l.71-.13c1.65,0,2.76.29,3.4,1.26A3,3,0,0,1,170.63,35.4Z"/><path class="cls-1" d="M30.37,29.73a8.64,8.64,0,0,1,1.3,1.46l1.65,1.75a14,14,0,0,0,3,2.85c-.06.46-1,.7-1.23,1C34.13,38,33.1,39,32.15,40.06a4.39,4.39,0,0,0-.71.78h-.13l-2.4-2.72c.28-.44,1.33-1.61,1.69-1.52a2.17,2.17,0,0,0,.78.94,7.35,7.35,0,0,0,1.49-1.72l-4-4.44Z"/><path class="cls-1" d="M24.28,29.76c.37.13.59.64.84.91.54.58,2.46,2.35,2.66,3l-1.46,1.62L26,35l-3.11-3.5v-.1Z"/><path class="cls-1" d="M29.3,33.1l1.52,1.68q-1.71,1.9-3.43,3.79l-.06-.06c-.59-.27-1-1.1-1.46-1.52l.1-.1Z"/><path class="cls-1" d="M17.16,33.13l1.55,1.62-.94,1.07a6.91,6.91,0,0,0,1.49,1.72l.1-.07,3.89-4.34h.06l1.46,1.62-1.2,1.33c-.89,1-1.91,2-2.75,3-.33.41-1.18,1.58-1.62,1.75l-3.6-4c-.32-.34-1-.56-1.26-1,.18-.28.61-.38.87-.58Z"/><path class="cls-1" d="M24.28,36.5a7.11,7.11,0,0,1,1.52,1.65l4,4.38c-.11.4-.64.76-.91,1-.95,1-1.92,2.06-2.78,3.11-.2.24-.64,1.27-.88,1.33l-.09,0c-.31-1.33-2.44-3.22-3.31-4.25-.3-.35-1-.72-1-1.26a18.72,18.72,0,0,0,2.43-2.62h0l1.46,1.65c-.3.33-.59.67-.88,1v.2l1.39,1.52c.12,0,.1,0,.17-.06a5.54,5.54,0,0,0,1.36-1.69,9.5,9.5,0,0,1-1.69-1.88,16.2,16.2,0,0,1-2.23-2.46Z"/><path class="cls-1" d="M89.33,41.91a2.34,2.34,0,0,1,1.45.42l-.06.07-.13.22c-.44-.3-1.57-.7-1.85.07a.94.94,0,0,0,0,.55c.63.25,2.36.55,2.13,1.59-.3,1.44-2,.65-2.72.29l.16-.16.07-.1c.44.27,1.71.93,2.07.06.35-1.44-2.37-.6-2.14-2.07a.93.93,0,0,1,.3-.65A3,3,0,0,1,89.33,41.91Z"/><path class="cls-1" d="M161.21,44v-.33h1.49a3.87,3.87,0,0,1-.1,1.52c-1.45.68-2.88.63-3.24-1.13-.4-2,1.85-2.58,3.17-1.72l-.19.2v.06l-.71-.35a1.48,1.48,0,0,0-1.88,1.26c-.3,1.54,1.85,2.51,2.56,1.43V44Z"/><path class="cls-1" d="M166.84,41.91a1.84,1.84,0,0,1,1.46.45l-.19.26a1.41,1.41,0,0,0-1.85,0c-.09,1.42,1.92.66,2.17,1.82.2,1-.83,1.43-1.72,1.2a3.21,3.21,0,0,1-1-.52l.07-.07.13-.22.16.16a1.79,1.79,0,0,0,1.88.06.76.76,0,0,0,0-.61c-.27-.57-1.29-.44-1.78-.78C165.21,43,166.23,42.19,166.84,41.91Z"/><path class="cls-1" d="M44.59,42h2.85v.33c-.3,0-1-.1-1.23.06l0,3.24h-.36V42.3H44.59Z"/><path class="cls-1" d="M50.55,42h.36l0,1.62h2.17V42h.36V45.6h-.36V44h-2.2v1.69l-.36,0Z"/><path class="cls-1" d="M56.87,42h2.62v.33H57.23v1.29h2V44h-2v1.33l2.3,0v.29H56.87Z"/><path class="cls-1" d="M66.55,42h2.63v.33H66.94v1.36h2V44h-2V45.6h-.39Z"/><path class="cls-1" d="M72.35,42h.36V45.6h-.36Z"/><path class="cls-1" d="M76.14,42h.36a21.53,21.53,0,0,0,2.36,2.92V42h.36v3.67l-.32,0-2.27-2.94H76.5V45.6h-.36Z"/><path class="cls-1" d="M82.59,42h2.66v.33H83v1.29h2V44H83v1.33h2.27v.32H82.59Z"/><path class="cls-1" d="M93.76,42h2.85v.33H95.38v3.3H95V42.3H93.76Z"/><path class="cls-1" d="M103.35,42h2.85v.33H105v3.3h-.39V42.3h-1.23Z"/><path class="cls-1" d="M109.35,42h.38V45.6h-.38Z"/><path class="cls-1" d="M119.26,42h2.62v.33h-2.27v1.29h2V44h-2v1.33l2.3,0v.29h-2.65Z"/><path class="cls-1" d="M124.83,42h2.85v.33h-1.23v3.3l-.13,0-.26,0V42.3h-1.23Z"/><path class="cls-1" d="M136.78,42h.36a21.53,21.53,0,0,0,2.36,2.92V42h.36v3.67l-.32,0-2.27-2.94h-.13V45.6h-.36Z"/><path class="cls-1" d="M153.17,42h.36c0,1.44-.34,3.69,1.36,3.37,1.23-.22,1-1.93.94-3.37h.36c0,1.77.29,4.11-1.82,3.7C152.93,45.39,153.14,43.7,153.17,42Z"/><path class="cls-1" d="M149,44.15c.24-.19.59-.21.77-.46a1,1,0,0,0,.17-.81c-.25-1.09-1.52-.94-2.85-.91v3.67l.35,0V44.18h1.1l1,1.42h.45Zm-1.53-.33V42.33c.92,0,2-.14,2.11.62C149.82,44,148.39,43.85,147.5,43.82Z"/><path class="cls-1" d="M132.05,41.94h-.39L130,45.6h.39l.39-.94h2.1l.39.94h.42Zm.65,2.33-1.62,0-.06-.07.81-1.81.87,1.81Z"/><path class="cls-1" d="M115.34,43.79v-.13a.87.87,0,0,0,.22-1.46,5.09,5.09,0,0,0-2.42-.23V45.6a5.24,5.24,0,0,0,2.62-.26A.89.89,0,0,0,115.34,43.79Zm-1.82-1.46c.91,0,2.24-.15,1.92.84-.23.54-1.15.45-1.92.42Zm0,3V44a3.74,3.74,0,0,1,2,.17l.19.38C115.68,45.47,114.47,45.31,113.52,45.28Z"/></g></svg>