<svg xmlns="http://www.w3.org/2000/svg" viewBox="0 0 200 65"><defs><style>.cls-1{fill:#1f1f1f}</style></defs><g id="_arktura" data-name="#arktura"><path d="M85.75 41.73v-.22a2.4 2.4 0 0 0 1.47-1.08 3.6 3.6 0 0 0 .48-1.89 3.18 3.18 0 0 0-1.13-2.69A4.37 4.37 0 0 0 83.8 35h-6.26l-.19.19v13.46l.19.2h6.65a4.26 4.26 0 0 0 2.81-.91 3.44 3.44 0 0 0 1.14-2.86c0-1.85-.79-3-2.35-3.37m-5.66-4 .19-.2h3.11a1.56 1.56 0 0 1 1.19.39 1.67 1.67 0 0 1 .36 1.17 1.63 1.63 0 0 1-.37 1.1 1.45 1.45 0 0 1-1.18.45h-3.15l-.19-.19v-2.71Zm3.29 8.76h-3.1l-.19-.2V43.2l.19-.2h3.08c1.29 0 1.93.58 1.93 1.74s-.64 1.74-1.93 1.74m44.54-11.51h-1.99l-.19.19-1.99 9.12h-.19L121 35.16l-.2-.19h-2.51l-.2.19-2.57 9.12h-.2l-1.98-9.12-.2-.19h-1.98l-.2.19v2.03l2.96 11.46.2.2h2.57l.19-.2 2.57-9.48h.2l2.56 9.48.2.2h2.57l.19-.2 2.96-11.46v-2.03zm-24.65-24.81a4.1 4.1 0 0 0 2-1.35 3.94 3.94 0 0 0 .85-2.59 3.76 3.76 0 0 0-1.29-3.08c-.86-.71-3.44-1.06-3.44-1.06H94.9l-.2.2v13.31l.2.19h2.35l.19-.19V10.5l.2-.2h1.91l.4.2 3.94 5.09.4.19h1.18l.19-.19v-2l-2.55-3.33.18-.14Zm-.55-2.62a2.3 2.3 0 0 1-1.44.39h-3.67l-.19-.2V4.65l.19-.19h3.67a2.3 2.3 0 0 1 1.44.38 1.65 1.65 0 0 1 .49 1.35 1.63 1.63 0 0 1-.49 1.35" class="cls-1"/><path d="m128.23 14.52-.37.05L100 30 72.14 14.57l-.37-.05-.27-.01v2.32l27.4 15.12v30.97h2.38V31.95l27.22-15.12v-2.32z" class="cls-1"/></g></svg>