<svg xmlns="http://www.w3.org/2000/svg" viewBox="0 0 200 65"><defs><style>.cls-1{fill:#1f1f1f;}</style></defs><g id="_arktura" data-name="#arktura"><path class="cls-1" d="M85.75,41.73v-.22a2.4,2.4,0,0,0,1.47-1.08,3.61,3.61,0,0,0,.48-1.89,3.18,3.18,0,0,0-1.13-2.69A4.37,4.37,0,0,0,83.8,35H77.54l-.19.19V48.65l.19.2h6.65A4.26,4.26,0,0,0,87,47.94a3.44,3.44,0,0,0,1.14-2.86c0-1.85-.79-3-2.35-3.37m-5.66-4,.19-.2h3.11a1.56,1.56,0,0,1,1.19.39,1.67,1.67,0,0,1,.36,1.17,1.63,1.63,0,0,1-.37,1.1,1.45,1.45,0,0,1-1.18.45H80.28l-.19-.19V37.72Zm3.29,8.76h-3.1l-.19-.2V43.2l.19-.2h3.08c1.29,0,1.93.58,1.93,1.74s-.64,1.74-1.93,1.74"/><polygon class="cls-1" points="127.94 34.97 125.95 34.97 125.76 35.16 123.77 44.28 123.58 44.28 121 35.16 120.8 34.97 118.29 34.97 118.09 35.16 115.52 44.28 115.32 44.28 113.34 35.16 113.14 34.97 111.16 34.97 110.96 35.16 110.96 37.19 113.92 48.65 114.12 48.85 116.69 48.85 116.88 48.65 119.45 39.17 119.65 39.17 122.21 48.65 122.41 48.85 124.98 48.85 125.17 48.65 128.13 37.19 128.13 35.16 127.94 34.97 127.94 34.97"/><path class="cls-1" d="M103.29,10.16a4.08,4.08,0,0,0,2-1.35,3.94,3.94,0,0,0,.85-2.59,3.76,3.76,0,0,0-1.29-3.08c-.86-.71-3.44-1.06-3.44-1.06H94.9l-.2.2V15.59l.2.19h2.35l.19-.19V10.5l.2-.2h1.91l.4.2,3.94,5.09.4.19h1.18l.19-.19v-2l-2.55-3.33.18-.14Zm-.55-2.62a2.29,2.29,0,0,1-1.44.39H97.63l-.19-.2V4.65l.19-.19h3.67a2.29,2.29,0,0,1,1.44.38,1.65,1.65,0,0,1,.49,1.35,1.63,1.63,0,0,1-.49,1.35"/><polygon class="cls-1" points="128.23 14.52 127.86 14.57 100 30 72.14 14.57 71.77 14.52 71.5 14.51 71.5 16.83 98.9 31.95 98.9 62.92 100.12 62.92 101.28 62.92 101.28 31.95 128.5 16.83 128.5 14.51 128.23 14.52 128.23 14.52"/></g></svg>