<svg xmlns="http://www.w3.org/2000/svg" viewBox="0 0 200 65"><path d="m84.52 43.88-16.14 9.39V44.7l7.55-4.39v-3.78l-7.55 4.39v-6.48l9.73-5.65V25L65 32.55l-.07 22.53H65L45.43 43.77l.06-18.9L59 32.68V29l-13.5-7.77L65 9.91l19.59 11.32ZM65 6.08 42.19 19.32l-.08 26.36 22.94 13.24 22.78-13.24.08-26.36Zm43.14 24.15v2.23h3.55v1.88h-3.55v3.92h-2.41v-10h7.04v1.97zm16.03 4.62-1.4-3.4-1.45 3.4Zm3.94 3.23-.11.18h-2.43l-.72-1.75h-4.24l-.73 1.75h-2.34l-.11-.18 4.62-9.82h1.46Zm5.57-4.82a5.2 5.2 0 0 1 5.43-5.19 5.37 5.37 0 0 1 4.19 2v.17l-1.48 1.23h-.17a3.3 3.3 0 0 0-2.54-1.19 3 3 0 0 0 0 6 3.3 3.3 0 0 0 2.54-1.19h.17l1.48 1.23v.17a5.33 5.33 0 0 1-4.22 2 5.2 5.2 0 0 1-5.4-5.19m21.07 4.96h-2.42v-8.03h-3.14v-1.97h8.7v1.97h-3.14z" data-name="#fact" style="fill:#1f1f1f"/></svg>