<svg xmlns="http://www.w3.org/2000/svg" viewBox="0 0 200 65"><defs><style>.cls-1{fill:#1f1f1f;}</style></defs><g id="_fact" data-name="#fact"><path class="cls-1" d="M84.52,43.88,68.38,53.27V44.7l7.55-4.39V36.53l-7.55,4.39V34.44l9.73-5.65V25L65,32.55l-.07,22.53H65L45.43,43.77l.06-18.9L59,32.68V29L45.5,21.23,65,9.91,84.59,21.23ZM65,6.08,42.19,19.32l-.08,26.36L65.05,58.92,87.83,45.68l.08-26.36Z"/><polygon class="cls-1" points="108.14 30.23 108.14 32.46 111.69 32.46 111.69 34.34 108.14 34.34 108.14 38.26 105.73 38.26 105.73 28.26 112.77 28.26 112.77 30.23 108.14 30.23"/><path class="cls-1" d="M124.17,34.85l-1.4-3.4-1.45,3.4Zm3.94,3.23-.11.18h-2.43l-.72-1.75h-4.24l-.73,1.75h-2.34l-.11-.18,4.62-9.82h1.46Z"/><path class="cls-1" d="M133.68,33.26a5.2,5.2,0,0,1,5.43-5.19,5.37,5.37,0,0,1,4.19,2v.17l-1.48,1.23h-.17a3.3,3.3,0,0,0-2.54-1.19,3,3,0,0,0,0,6,3.3,3.3,0,0,0,2.54-1.19h.17l1.48,1.23v.17a5.33,5.33,0,0,1-4.22,2,5.2,5.2,0,0,1-5.4-5.19"/><polygon class="cls-1" points="154.75 38.26 152.33 38.26 152.33 30.23 149.19 30.23 149.19 28.26 157.89 28.26 157.89 30.23 154.75 30.23 154.75 38.26"/></g></svg>