<svg id="Layer_1" data-name="Layer 1" xmlns="http://www.w3.org/2000/svg" viewBox="0 0 112 112"><defs><style>.cls-1{fill:#fff;}.cls-2{fill:#04955f;}</style></defs><rect class="cls-1" x="0.26" y="0.26" width="111.48" height="111.48"/><g id="Logo"><path class="cls-2" d="M50.63,27.22C50.63,10.1,69.3-2.73,87.34,8A16.26,16.26,0,0,1,93,13.65c10.74,18-2.1,36.72-19.21,36.72H61.71V61.63h50V.26H.26V39.31H50.65C50.64,35.11,50.63,27.42,50.63,27.22Z"/><path class="cls-2" d="M26.47,84.78a12.09,12.09,0,1,0,24.18,0V72.69H38.56A12.11,12.11,0,0,0,26.47,84.78Z"/><path class="cls-2" d="M61.71,84.78A23.15,23.15,0,1,1,38.56,61.63H50.65V50.37H.26v61.37H111.74v-39h-50Z"/><path class="cls-2" d="M85.86,27.22a12.09,12.09,0,1,0-24.17,0l0,12.09H73.78A12.1,12.1,0,0,0,85.86,27.22Z"/></g></svg>