<svg id="loop_am" xmlns="http://www.w3.org/2000/svg" viewBox="0 0 1758.36 512"><defs><style>.cls-1{fill:#231f20;}.cls-2{fill:#006838;}</style></defs><path class="cls-1" d="M985.61,322a22.81,22.81,0,0,1-8.68-9.58,33.11,33.11,0,0,1-3.1-15v-13.2a30.92,30.92,0,0,1,3.87-15.89A27.33,27.33,0,0,1,989,257.86q7.44-3.86,19-4.81l18.8-1.55v11.9l-17.14,1.42q-10.82,1.2-16,5.95a16.19,16.19,0,0,0-5.17,12.5v12.84q0,8,4,12.08t10.65,4.11a15.44,15.44,0,0,0,8.63-2.38,16.2,16.2,0,0,0,5.71-6.79,24.07,24.07,0,0,0,2.08-10.35V228.89q0-8.44-3.69-13.2T1005,210.93q-7,0-10.76,4.7t-3.87,13.14l-.12,12.38h-14l-.12-12.38q.12-9.87,3.75-16.83A25.5,25.5,0,0,1,990,201.29a30.67,30.67,0,0,1,15.41-3.69,29.68,29.68,0,0,1,15.23,3.75,24.74,24.74,0,0,1,9.87,10.83,37.19,37.19,0,0,1,3.45,16.48v95.41h-14.39v-12h-.36a23.9,23.9,0,0,1-4.94,7.31,19.42,19.42,0,0,1-7,4.53,24.11,24.11,0,0,1-8.5,1.48A24.76,24.76,0,0,1,985.61,322Z"/><path class="cls-1" d="M1053.31,199h14.28v15.23h.71q1.79-8.56,6.54-12.43A17.9,17.9,0,0,1,1086.5,198a17.28,17.28,0,0,1,3.75.36,25.61,25.61,0,0,1,2.68.71V213.9a12.45,12.45,0,0,0-3.22-1,24.3,24.3,0,0,0-4.28-.36,15.5,15.5,0,0,0-9.87,3.16,18.5,18.5,0,0,0-6,9.4,49.58,49.58,0,0,0-2,14.81v84.11h-14.28Z"/><path class="cls-1" d="M1114.76,321.34a27.55,27.55,0,0,1-10.65-11.6,38.5,38.5,0,0,1-3.81-17.55v-61a39.43,39.43,0,0,1,3.75-17.84,27.39,27.39,0,0,1,10.65-11.6,30.1,30.1,0,0,1,15.7-4.11,28.56,28.56,0,0,1,15.06,4,27,27,0,0,1,10.23,11.12q3.63,7.14,3.86,17.61l-.35,13.45h-13.92V229.25q-.24-8.92-4.11-13.56t-10.65-4.64a14.15,14.15,0,0,0-13.62,8.86,25.69,25.69,0,0,0-1.84,10.29v62.94a26,26,0,0,0,1.78,10.17,14.43,14.43,0,0,0,5.24,6.55,14.82,14.82,0,0,0,8.44,2.32,13.06,13.06,0,0,0,10.65-4.7q3.87-4.71,3.87-13.63V279.46h14.39l-.11,13.56a36.17,36.17,0,0,1-3.63,17.25,27.59,27.59,0,0,1-10.18,11.19,28.23,28.23,0,0,1-15,3.92A30.43,30.43,0,0,1,1114.76,321.34Z"/><path class="cls-1" d="M1176.69,150.13h14.63v62.46h.36a29.41,29.41,0,0,1,8.15-10.53q5.3-4.34,13.38-4.34a24.26,24.26,0,0,1,13.62,3.63,21.72,21.72,0,0,1,8.27,10.53,45.09,45.09,0,0,1,2.74,16.66v95.53h-14.63V230.92q0-9.4-3.63-14.7t-11.48-5.29a14.42,14.42,0,0,0-9.11,2.91,18.29,18.29,0,0,0-5.71,7.91,31.09,31.09,0,0,0-2,11.43v90.89h-14.63Z"/><path class="cls-1" d="M1257.17,179.76a9.2,9.2,0,0,1-2.91-6.79,9.72,9.72,0,0,1,2.91-7.25,9.6,9.6,0,0,1,7-2.86,9.27,9.27,0,0,1,6.79,2.86,9.83,9.83,0,0,1,2.85,7.25,9.73,9.73,0,0,1-9.64,9.64A9.63,9.63,0,0,1,1257.17,179.76Zm-.41,19.27h14.51v125h-14.51Z"/><path class="cls-1" d="M1300.72,319.26q-6-5.77-6-17.91V211.52h-10.59V199h10.59V165.36h15V199h15.94v12.49H1309.7V300q0,6.42,2.74,9.52c1.82,2.06,4.72,3.09,8.68,3.09.88,0,1.73,0,2.56-.12a23.88,23.88,0,0,0,2.44-.35v12.49l-3.21.24q-1.79.12-3.93.12Q1306.72,325,1300.72,319.26Z"/><path class="cls-1" d="M1350.15,321.34A27.91,27.91,0,0,1,1339.57,310a37,37,0,0,1-3.81-17.32V230.44a36.74,36.74,0,0,1,3.81-17.19,28.15,28.15,0,0,1,26.17-15.65,29.84,29.84,0,0,1,15.59,4.05A27.48,27.48,0,0,1,1391.86,213a37.08,37.08,0,0,1,3.74,17.07v36.53h-52.47v-11.9h45l-6.78,10.83V230.32a25.15,25.15,0,0,0-2-10.41,15.61,15.61,0,0,0-5.35-6.66,13.85,13.85,0,0,0-8-2.32,15.23,15.23,0,0,0-8.27,2.2,13.79,13.79,0,0,0-5.36,6.72,27.8,27.8,0,0,0-1.84,10.47v62.82a25.61,25.61,0,0,0,1.9,10.29,14.42,14.42,0,0,0,5.48,6.61,15.49,15.49,0,0,0,8.44,2.26,14,14,0,0,0,7.92-2.26,15.19,15.19,0,0,0,5.29-6.25,21.75,21.75,0,0,0,1.9-9.46l-.11-10.11h14.27v9.52a43.27,43.27,0,0,1-2.08,13,27.06,27.06,0,0,1-5.77,10,25.88,25.88,0,0,1-9.34,6.36,32.21,32.21,0,0,1-12.31,2.26A30.64,30.64,0,0,1,1350.15,321.34Z"/><path class="cls-1" d="M1427,321.34a27.55,27.55,0,0,1-10.65-11.6,38.63,38.63,0,0,1-3.8-17.55v-61a39.43,39.43,0,0,1,3.75-17.84,27.31,27.31,0,0,1,10.64-11.6,30.11,30.11,0,0,1,15.71-4.11,28.52,28.52,0,0,1,15.05,4,27,27,0,0,1,10.23,11.12q3.63,7.14,3.87,17.61l-.36,13.45h-13.92V229.25q-.24-8.92-4.1-13.56t-10.65-4.64a14.17,14.17,0,0,0-13.63,8.86,25.87,25.87,0,0,0-1.84,10.29v62.94a26,26,0,0,0,1.79,10.17,14.41,14.41,0,0,0,5.23,6.55,14.86,14.86,0,0,0,8.45,2.32,13.06,13.06,0,0,0,10.65-4.7q3.86-4.71,3.86-13.63V279.46h14.4l-.12,13.56a36.17,36.17,0,0,1-3.63,17.25,27.63,27.63,0,0,1-10.17,11.19,28.23,28.23,0,0,1-15,3.92A30.46,30.46,0,0,1,1427,321.34Z"/><path class="cls-1" d="M1498.93,319.26q-6-5.77-6-17.91V211.52h-10.59V199h10.59V165.36h15V199h15.94v12.49h-15.94V300q0,6.42,2.73,9.52c1.83,2.06,4.72,3.09,8.69,3.09.87,0,1.72,0,2.56-.12a24.29,24.29,0,0,0,2.44-.35v12.49l-3.22.24c-1.19.08-2.5.12-3.92.12Q1504.95,325,1498.93,319.26Z"/><path class="cls-1" d="M1548,322a21.16,21.16,0,0,1-8.15-10.41,45,45,0,0,1-2.62-16.18V199h14.64v94.23q0,8.81,3.51,14t11.72,5.23a15,15,0,0,0,7-1.6,15.33,15.33,0,0,0,5.23-4.46,20.59,20.59,0,0,0,3.27-7,33.53,33.53,0,0,0,1.13-9V199h14.4v125h-14.4V311.22h-.47a26.66,26.66,0,0,1-4.82,7.5,20.57,20.57,0,0,1-7.2,5.12A27.21,27.21,0,0,1,1548,322Z"/><path class="cls-1" d="M1617.61,199h14.28v15.23h.71q1.79-8.56,6.55-12.43a17.88,17.88,0,0,1,11.66-3.87,17.41,17.41,0,0,1,3.75.36,24.7,24.7,0,0,1,2.67.71V213.9a12.25,12.25,0,0,0-3.21-1,24.46,24.46,0,0,0-4.28-.36,15.55,15.55,0,0,0-9.88,3.16,18.5,18.5,0,0,0-6,9.4,49.58,49.58,0,0,0-2,14.81v84.11h-14.28Z"/><path class="cls-1" d="M1676.27,322a22.89,22.89,0,0,1-8.69-9.58,33.25,33.25,0,0,1-3.09-15v-13.2a30.92,30.92,0,0,1,3.87-15.89,27.27,27.27,0,0,1,11.3-10.47q7.44-3.86,19-4.81l18.79-1.55v11.9l-17.13,1.42q-10.83,1.2-16,5.95a16.2,16.2,0,0,0-5.18,12.5v12.84q0,8,4,12.08t10.65,4.11a15.41,15.41,0,0,0,8.62-2.38,16.06,16.06,0,0,0,5.71-6.79,23.93,23.93,0,0,0,2.09-10.35V228.89q0-8.44-3.69-13.2t-10.83-4.76q-7,0-10.77,4.7T1681,228.77l-.12,12.38h-14l-.12-12.38q.12-9.87,3.75-16.83a25.5,25.5,0,0,1,10.11-10.65A30.65,30.65,0,0,1,1696,197.6a29.7,29.7,0,0,1,15.23,3.75,24.74,24.74,0,0,1,9.87,10.83,37.19,37.19,0,0,1,3.45,16.48v95.41h-14.39v-12h-.36a24.08,24.08,0,0,1-4.94,7.31,19.42,19.42,0,0,1-7,4.53,24.11,24.11,0,0,1-8.5,1.48A24.76,24.76,0,0,1,1676.27,322Z"/><path class="cls-1" d="M1743.85,150.13h14.51V324.07h-14.51Z"/><path class="cls-1" d="M977.16,381.78h14.4v13.8h.59a25,25,0,0,1,7.74-10.89q5.24-4.21,13.32-4.22a23.19,23.19,0,0,1,9.58,1.84,18.25,18.25,0,0,1,7,5.48,28.32,28.32,0,0,1,4.52,8.62h.48a33.05,33.05,0,0,1,5-8.15,21.39,21.39,0,0,1,7.62-5.77,25.27,25.27,0,0,1,10.53-2,21.46,21.46,0,0,1,12.49,3.69,23,23,0,0,1,8.15,10.41,42.65,42.65,0,0,1,2.8,16.36v95.89h-14.28V413.43a32.74,32.74,0,0,0-1.55-10.59,13.27,13.27,0,0,0-4.82-6.84,13.48,13.48,0,0,0-8-2.32,14.31,14.31,0,0,0-8.86,2.73,16.19,16.19,0,0,0-5.41,7.74,33.41,33.41,0,0,0-1.79,11.3v91.37H1022V413.43a31.08,31.08,0,0,0-1.61-10.53,14.17,14.17,0,0,0-4.82-6.84,12.8,12.8,0,0,0-7.85-2.38,13.35,13.35,0,0,0-8.8,2.85,18.9,18.9,0,0,0-5.42,7.85,31,31,0,0,0-2,11.43v91h-14.4Z"/><path class="cls-1" d="M1108.87,504.74a22.89,22.89,0,0,1-8.69-9.58,33.25,33.25,0,0,1-3.09-15V467a30.92,30.92,0,0,1,3.87-15.89,27.33,27.33,0,0,1,11.3-10.47q7.44-3.86,19-4.81l18.8-1.55v11.9l-17.14,1.42q-10.82,1.2-16,5.95a16.19,16.19,0,0,0-5.17,12.5v12.85q0,8,4,12.07t10.65,4.11a15.44,15.44,0,0,0,8.63-2.38,16.2,16.2,0,0,0,5.71-6.79,24.07,24.07,0,0,0,2.08-10.35V411.64q0-8.44-3.69-13.21t-10.83-4.75q-7,0-10.76,4.7t-3.87,13.14l-.12,12.38h-14l-.12-12.38q.12-9.87,3.75-16.83A25.5,25.5,0,0,1,1113.21,384a30.67,30.67,0,0,1,15.41-3.69,29.68,29.68,0,0,1,15.23,3.75,24.77,24.77,0,0,1,9.87,10.82,37.22,37.22,0,0,1,3.45,16.48v95.42h-14.39v-12h-.36a23.9,23.9,0,0,1-4.94,7.31,19.42,19.42,0,0,1-7,4.53,24.11,24.11,0,0,1-8.5,1.48A24.76,24.76,0,0,1,1108.87,504.74Z"/><path class="cls-1" d="M1186.74,502q-6-5.77-6-17.91V394.27h-10.59V381.78h10.59V348.11h15v33.67h16v12.49h-16v88.52q0,6.42,2.74,9.52c1.82,2.06,4.72,3.09,8.68,3.09.88,0,1.73,0,2.56-.12a23.48,23.48,0,0,0,2.44-.35v12.49l-3.21.24q-1.79.12-3.93.12Q1192.74,507.78,1186.74,502Z"/><path class="cls-1" d="M1236.17,504.09a27.91,27.91,0,0,1-10.58-11.36,37,37,0,0,1-3.81-17.32V413.19a36.69,36.69,0,0,1,3.81-17.19,28.13,28.13,0,0,1,26.17-15.65,29.82,29.82,0,0,1,15.59,4,27.48,27.48,0,0,1,10.53,11.36,37.08,37.08,0,0,1,3.74,17.07v36.53h-52.47v-11.9h45l-6.78,10.83V413.07a25.08,25.08,0,0,0-2-10.41A15.55,15.55,0,0,0,1260,396a13.85,13.85,0,0,0-8-2.32,15.23,15.23,0,0,0-8.27,2.2,13.68,13.68,0,0,0-5.35,6.72,27.53,27.53,0,0,0-1.85,10.47v62.82a25.44,25.44,0,0,0,1.91,10.29,14.34,14.34,0,0,0,5.47,6.61,15.5,15.5,0,0,0,8.45,2.26,14,14,0,0,0,7.91-2.26,15.19,15.19,0,0,0,5.29-6.25,21.75,21.75,0,0,0,1.91-9.46l-.12-10.11h14.27v9.52a43.27,43.27,0,0,1-2.08,13,27.06,27.06,0,0,1-5.77,10,25.88,25.88,0,0,1-9.34,6.36,32.21,32.21,0,0,1-12.31,2.26A30.64,30.64,0,0,1,1236.17,504.09Z"/><path class="cls-1" d="M1299.71,381.78H1314V397h.71q1.79-8.56,6.54-12.44a19.7,19.7,0,0,1,15.41-3.51c1.07.24,2,.48,2.68.72v14.87a12.07,12.07,0,0,0-3.22-.95,24.3,24.3,0,0,0-4.28-.36,15.57,15.57,0,0,0-9.87,3.15,18.59,18.59,0,0,0-6,9.4,49.65,49.65,0,0,0-2,14.82v84.11h-14.28Z"/><path class="cls-1" d="M1352.59,362.5a9.17,9.17,0,0,1-2.91-6.78,9.76,9.76,0,0,1,2.91-7.26,9.63,9.63,0,0,1,7-2.85,9.26,9.26,0,0,1,6.78,2.85,9.83,9.83,0,0,1,2.86,7.26,9.77,9.77,0,0,1-9.64,9.64A9.6,9.6,0,0,1,1352.59,362.5Zm-.41,19.28h14.51v125h-14.51Z"/><path class="cls-1" d="M1394.41,504.74a22.87,22.87,0,0,1-8.68-9.58,33.25,33.25,0,0,1-3.1-15V467a30.92,30.92,0,0,1,3.87-15.89,27.39,27.39,0,0,1,11.3-10.47q7.44-3.86,19-4.81l18.8-1.55v11.9l-17.13,1.42q-10.83,1.2-16,5.95a16.19,16.19,0,0,0-5.17,12.5v12.85q0,8,4,12.07t10.65,4.11a15.44,15.44,0,0,0,8.63-2.38,16.13,16.13,0,0,0,5.71-6.79,23.93,23.93,0,0,0,2.08-10.35V411.64q0-8.44-3.69-13.21t-10.82-4.75q-7,0-10.77,4.7t-3.87,13.14l-.12,12.38h-14l-.11-12.38q.11-9.87,3.74-16.83A25.46,25.46,0,0,1,1398.76,384a30.61,30.61,0,0,1,15.4-3.69,29.68,29.68,0,0,1,15.23,3.75,24.73,24.73,0,0,1,9.88,10.82,37.22,37.22,0,0,1,3.45,16.48v95.42h-14.4v-12H1428a23.88,23.88,0,0,1-4.93,7.31,19.59,19.59,0,0,1-7,4.53,24.21,24.21,0,0,1-8.51,1.48A24.76,24.76,0,0,1,1394.41,504.74Z"/><path class="cls-1" d="M1462,332.88h14.52V506.82H1462Z"/><path class="cls-1" d="M1507.2,504.56A26.14,26.14,0,0,1,1496.91,494a36.13,36.13,0,0,1-3.87-16.3V466.61h14.4v11.3q.12,8.68,4.4,13.33t11.78,4.64a16.31,16.31,0,0,0,8-1.9,13.13,13.13,0,0,0,5.3-5.3,16.3,16.3,0,0,0,1.84-7.91v-5q0-8.68-3.57-14.16t-12.37-10.94l-7.62-4.4a47.09,47.09,0,0,1-11.71-8.81,31.81,31.81,0,0,1-6.79-10.83,39,39,0,0,1-2.2-13.56V409a29.7,29.7,0,0,1,3.63-14.87A26.28,26.28,0,0,1,1508.27,384a30.51,30.51,0,0,1,15.23-3.69,29.78,29.78,0,0,1,15.11,3.63,23.92,23.92,0,0,1,9.64,10.29,34.59,34.59,0,0,1,3.21,16.06v11.78h-13.68V409.74q0-7.86-3.87-12.38a13.12,13.12,0,0,0-10.53-4.52,15.45,15.45,0,0,0-7.61,1.85,11.6,11.6,0,0,0-4.94,5.11,17.82,17.82,0,0,0-1.6,7.91v4.41a30.09,30.09,0,0,0,1.36,9.76,18.05,18.05,0,0,0,4.76,7.13,59.56,59.56,0,0,0,8.75,6.67l8,4.52q11,6.42,16.12,14.33t5.18,19.81v4.53a31.4,31.4,0,0,1-3.69,15.46,25.83,25.83,0,0,1-10.47,10.35,32.36,32.36,0,0,1-15.71,3.69Q1513.87,508.37,1507.2,504.56Z"/><path class="cls-2" d="M0,5.21H43.8V466.12H167.19v40.66H0Z"/><path class="cls-2" d="M234.32,497.05q-24.67-14.94-38.06-42.23T182.88,390V122.7q0-37.89,13.55-65.52T234.5,14.77Q259,0,291.33,0,323,0,347.64,14.77T386.05,57q13.72,27.47,13.73,65.7V390q0,37.54-13.73,64.83t-38.41,42.23Q323,512,291,512T234.32,497.05Zm91.25-36q14.76-9.56,22.59-27.46T356,390.69v-269q0-25-7.82-43.1T325.57,50.92q-14.79-9.56-34.24-9.56-20.16,0-34.59,9.74T234.5,78.73q-7.83,17.89-7.83,42.92v269q0,24.69,7.65,42.41t22.42,27.63q14.77,9.9,34.24,9.91Q310.79,470.64,325.57,461.08Z"/><path class="cls-2" d="M496.45,497.05q-24.68-14.94-38.06-42.23T445,390V122.7q0-37.89,13.55-65.52t38.07-42.41Q521.14,0,553.46,0q31.62,0,56.31,14.77T648.18,57q13.73,27.47,13.73,65.7V390q0,37.54-13.73,64.83t-38.41,42.23Q585.08,512,553.11,512T496.45,497.05Zm91.25-36q14.76-9.56,22.59-27.46t7.82-42.93v-269q0-25-7.82-43.1T587.7,50.92q-14.79-9.56-34.24-9.56-20.16,0-34.59,9.74T496.63,78.73q-7.83,17.89-7.83,42.92v269q0,24.69,7.65,42.41t22.42,27.63q14.77,9.9,34.24,9.91Q572.93,470.64,587.7,461.08Z"/><path class="cls-2" d="M711.31,5.21h42.75V506.78H711.31Zm21.55,270.43h63.27q31.62,0,48.14-14.77t16.5-45.71V106q0-30.24-16.5-45.36T796.13,45.53H732.86V5.21H801q34.41,0,57.52,11.47a76.32,76.32,0,0,1,34.76,33.89Q904.93,73,904.92,106.71V214.46q0,33.72-11.65,56.48A75,75,0,0,1,858.51,305q-23.12,11.3-57.52,11.3H732.86Z"/></svg>