<svg xmlns="http://www.w3.org/2000/svg" viewBox="0 0 905.3 512"><defs><style>.cls-1{fill:#006838;}</style></defs><g id="loop_solo"><path class="cls-1" d="M0,5.21H43.8V466.12H167.19v40.66H0Z"/><path class="cls-1" d="M234.32,497.05q-24.67-14.94-38.06-42.23T182.88,390V122.7q0-37.89,13.55-65.52T234.5,14.77Q259,0,291.33,0,323,0,347.64,14.77T386.05,57q13.72,27.47,13.73,65.7V390q0,37.54-13.73,64.83t-38.41,42.23Q323,512,291,512T234.32,497.05Zm91.25-36q14.76-9.56,22.59-27.46T356,390.69v-269q0-25-7.82-43.1T325.57,50.92q-14.79-9.56-34.24-9.56-20.16,0-34.59,9.74T234.5,78.73q-7.83,17.89-7.83,42.92v269q0,24.69,7.65,42.41t22.42,27.63q14.77,9.9,34.24,9.91Q310.79,470.64,325.57,461.08Z"/><path class="cls-1" d="M496.45,497.05q-24.68-14.94-38.06-42.23T445,390V122.7q0-37.89,13.55-65.52t38.07-42.41Q521.14,0,553.46,0q31.62,0,56.31,14.77T648.18,57q13.73,27.47,13.73,65.7V390q0,37.54-13.73,64.83t-38.41,42.23Q585.08,512,553.11,512T496.45,497.05Zm91.25-36q14.76-9.56,22.59-27.46t7.82-42.93v-269q0-25-7.82-43.1T587.7,50.92q-14.79-9.56-34.24-9.56-20.16,0-34.59,9.74T496.63,78.73q-7.83,17.89-7.83,42.92v269q0,24.69,7.65,42.41t22.42,27.63q14.77,9.9,34.24,9.91Q572.93,470.64,587.7,461.08Z"/><path class="cls-1" d="M711.31,5.21h42.75V506.78H711.31Zm21.55,270.43h63.27q31.62,0,48.14-14.77t16.5-45.71V106q0-30.24-16.5-45.36T796.13,45.53H732.86V5.21H801q34.41,0,57.52,11.47a76.32,76.32,0,0,1,34.76,33.89Q904.93,73,904.92,106.71V214.46q0,33.72-11.65,56.48A75,75,0,0,1,858.51,305q-23.12,11.3-57.52,11.3H732.86Z"/></g></svg>