<svg xmlns="http://www.w3.org/2000/svg" xml:space="preserve" style="fill-rule:evenodd;clip-rule:evenodd;stroke-linejoin:round;stroke-miterlimit:2" viewBox="0 0 835 271"><path d="M0 0h200v65H0z" style="fill:none" transform="translate(.85 .15)scale(4.16667)"/><path d="M0-25.644v21.39q.001.012.014.013h12.068q.012.001.014.014V0q-.002.012-.014.013H-4.607Q-4.62.012-4.621 0v-25.644q.001-.012.014-.013h4.594q.012.001.013.013" style="fill:#464647;fill-rule:nonzero" transform="translate(190.936 188.99)scale(4.16667)"/><path d="m0 6.178 3.132 2.404c.006.004.007.013.004.019-1.761 2.964-4.765 4.756-8.465 4.756-5.538 0-9.058-4.071-9.058-10.268s3.594-10.268 9.058-10.268c5.391 0 9.131 4.143 9.131 10.268v1.6a.013.013 0 0 1-.013.013h-13.87q-.013.002-.014.016c.408 3.071 2.131 4.825 4.766 4.825 2.343 0 3.845-1.023 5.309-3.361.004-.007.014-.009.02-.004m-.577-4.886c.008 0 .015-.008.014-.015-.334-3.035-2.093-4.642-4.766-4.642s-4.577 1.826-4.766 4.642c-.001.007.006.015.013.015z" style="fill:#464647;fill-rule:nonzero" transform="translate(301.28 135.684)scale(4.16667)"/><path d="M0-26.195V-.551q-.001.012-.014.013h-4.264a.013.013 0 0 1-.013-.013v-1.494a.013.013 0 0 0-.022-.008C-5.489-.784-7.458.013-9.535.013c-5.244 0-8.801-4.145-8.801-10.27 0-6.123 3.557-10.267 8.801-10.267 2.15 0 3.939.652 5.112 1.775.008.009.022.003.022-.009v-7.437q.001-.012.013-.013h4.374q.013.001.014.013m-4.401 14.216c0-2.677-1.834-4.475-4.62-4.475-3.081 0-4.915 2.348-4.915 6.197 0 3.852 1.834 6.199 4.915 6.199 2.786 0 4.62-1.834 4.62-4.511z" style="fill:#464647;fill-rule:nonzero" transform="translate(398.983 191.286)scale(4.16667)"/><path d="M0 4.92q.013-.002.016.01C.57 7.525 2.622 9.024 5.807 9.024c2.787 0 4.291-.843 4.291-2.31 0-1.394-1.101-1.981-5.429-2.714-5.279-.844-7.406-2.494-7.406-5.758 0-3.52 3.19-6.051 7.517-6.051 4.138 0 7.912 2.561 8.725 5.965q.001.012-.01.017L9.67-.734q-.012.002-.016-.01C9.099-2.753 7.159-4.141 4.78-4.141c-1.907 0-3.373 1.027-3.373 2.31C1.407-.62 2.433-.181 6.76.553c5.244.844 7.445 2.567 7.445 6.051 0 3.777-3.227 6.125-8.398 6.125q-3.85 0-6.491-1.872c-1.72-1.28-2.819-2.962-3.224-5.046q-.002-.013.011-.017z" style="fill:#464647;fill-rule:nonzero" transform="translate(421.805 138.305)scale(4.16667)"/><path d="M0-26.771c2.751 0 4.994.844 6.858 2.384 1.961 1.621 3.173 4.279 3.558 7.027q0 .015-.014.016H5.883q-.01 0-.013-.011c-.723-3.369-2.903-5.162-5.87-5.162-4.144 0-6.454 3.52-6.454 9.132 0 5.61 2.31 9.182 6.454 9.131 2.951-.037 5.23-1.932 5.949-5.563a.014.014 0 0 1 .013-.012h4.54c.008 0 .015.008.013.017-.457 3.088-1.542 5.623-3.583 7.392C5.064-.803 2.751 0 0 0c-6.931 0-11.074-5.464-11.074-13.385 0-7.922 4.143-13.386 11.074-13.386" style="fill:#464647;fill-rule:nonzero" transform="translate(531.163 191.339)scale(4.16667)"/><path d="M0 15.771h-12.441a.014.014 0 0 1-.014-.014v-4.308q0-.005.004-.01c2.676-2.675 4.727-5.241 6.12-7.771 1.429-2.527 2.418-5.383 2.969-8.606q.002-.011.012-.012h4.667q.015.002.014.017C.34 1.54-2.547 7.137-6.822 11.494c-.009.008-.003.023.009.023H0q.012-.002.013-.014V5.149q.002-.012.014-.013h4.557q.013.001.014.013v6.354q.001.012.013.014h3.2q.013.001.014.013v4.227a.014.014 0 0 1-.014.014h-3.2a.013.013 0 0 0-.013.013v4.924q-.001.012-.014.013H.027q-.012-.001-.014-.013v-4.924A.013.013 0 0 0 0 15.771" style="fill:#464647;fill-rule:nonzero" transform="translate(630.746 102.708)scale(4.16667)"/></svg>