<svg xmlns="http://www.w3.org/2000/svg" viewBox="0 0 200 65"><path d="M36.27 42c-5.68 0-10.48-4.21-10.48-9.41 0-5.44 4.7-9.66 10.48-9.66s10.5 4.18 10.5 9.57-4.71 9.5-10.5 9.5m0-21.78C29.84 20.21 23 24.94 23 32.58c0 6.57 6 12.11 13.27 12.11s13.3-5.49 13.3-12.24-5.92-12.24-13.3-12.24M70.33 44.3h2.88V33.77h10.07v-2.81H73.21v-7.55h10.46v-2.8H70.33zm-17.6 0h2.88V33.77h10.07v-2.81H55.61v-7.55h10.45v-2.8H52.73zm34.98 0h14.42v-2.8H90.6v-7.81h11.15v-2.8H90.6v-7.48h11.53v-2.8H87.71zm58.58-21.38a10.24 10.24 0 0 1 8.29 4.08h3.58c-.95-2.12-5.22-6.78-11.84-6.78-7.46 0-13.22 5.4-13.22 12.29s5.76 12.3 13.22 12.29c6.93 0 11-4.64 11.92-6.75h-3.57a10.35 10.35 0 0 1-8.38 4c-5.62 0-10.27-4.28-10.27-9.58s4.65-9.58 10.27-9.58m-27.97.03a10.24 10.24 0 0 1 8.29 4.08h3.59c-1-2.12-5.23-6.78-11.84-6.78-7.47 0-13.23 5.4-13.23 12.29s5.76 12.3 13.23 12.29c6.92 0 11-4.64 11.92-6.75h-3.58a10.35 10.35 0 0 1-8.38 4c-5.62 0-10.27-4.28-10.27-9.58s4.65-9.58 10.27-9.58m41.56-2.36v2.71h7.09v20.99h2.98V23.24H177v-2.71z" data-name="#offect" style="fill:#1f1f1f"/></svg>