<svg xmlns="http://www.w3.org/2000/svg" viewBox="0 0 200 65"><defs><style>.cls-1{fill:#1f1f1f}</style></defs><g id="Layer_1-2" data-name="Layer 1"><path d="M114.26 37.06 99.86 1.59a.51.51 0 0 0-.48-.32.49.49 0 0 0-.47.32l-14.3 35.47h4.61a15.47 15.47 0 0 0 10.21-3.47 15.33 15.33 0 0 0 10 3.47h4.78ZM98 30.49c-2.06-3-2.73-7.08-1.54-9.35a3.37 3.37 0 0 1 5.87 0c1.19 2.27.51 6.38-1.54 9.35a12.5 12.5 0 0 1-1.4 1.69A13 13 0 0 1 98 30.49M109.64 36a14.42 14.42 0 0 1-9.45-3.15 13 13 0 0 0 1.48-1.81c2.29-3.31 3-7.79 1.61-10.41a4.41 4.41 0 0 0-7.69 0c-1.37 2.62-.68 7.1 1.61 10.41a13 13 0 0 0 1.48 1.81A14.34 14.34 0 0 1 89.23 36h-3.1L99.38 3.15 112.74 36z" class="cls-1"/><path d="M114.26 37.06 99.86 1.59a.51.51 0 0 0-.48-.32.49.49 0 0 0-.47.32l-14.3 35.47h4.61a15.47 15.47 0 0 0 10.21-3.47 15.33 15.33 0 0 0 10 3.47h4.78ZM98 30.49c-2.06-3-2.73-7.08-1.54-9.35a3.37 3.37 0 0 1 5.87 0c1.19 2.27.51 6.38-1.54 9.35a12.5 12.5 0 0 1-1.4 1.69A13 13 0 0 1 98 30.49M109.64 36a14.42 14.42 0 0 1-9.45-3.15 13 13 0 0 0 1.48-1.81c2.29-3.31 3-7.79 1.61-10.41a4.41 4.41 0 0 0-7.69 0c-1.37 2.62-.68 7.1 1.61 10.41a13 13 0 0 0 1.48 1.81A14.34 14.34 0 0 1 89.23 36h-3.1L99.38 3.15 112.74 36zM77.9 53.25l4.95-11.18A.2.2 0 0 1 83 42a.21.21 0 0 1 .21.12l4.9 11.18c0 .09 0 .19-.15.19h-.41a.26.26 0 0 1-.23-.14l-1.3-3H80l-1.28 3a.26.26 0 0 1-.23.14H78c-.11 0-.16-.06-.11-.19m7.94-3.54-2.75-6.47-2.8 6.47Z" class="cls-1"/><path d="m77.9 53.25 4.95-11.18A.2.2 0 0 1 83 42a.21.21 0 0 1 .21.12l4.9 11.18c0 .09 0 .19-.15.19h-.41a.26.26 0 0 1-.23-.14l-1.3-3H80l-1.28 3a.26.26 0 0 1-.23.14H78c-.11 0-.16-.06-.11-.19m7.94-3.54-2.75-6.47-2.8 6.47Zm4.82-7.36a.2.2 0 0 1 .21-.2h4a3.44 3.44 0 0 1 .92 6.8l2.34 4.16c.08.13 0 .29-.11.29h-.5a.22.22 0 0 1-.22-.14L95 49.09h-3.59v4.13a.23.23 0 0 1-.26.21h-.29a.22.22 0 0 1-.21-.21Zm4.16 6a2.82 2.82 0 0 0 2.85-2.8 2.78 2.78 0 0 0-2.86-2.7h-3.38v5.5Z" class="cls-1"/><path d="M90.65 42.4a.2.2 0 0 1 .21-.2h4a3.44 3.44 0 0 1 .92 6.8l2.34 4.16c.08.13 0 .29-.11.29h-.5a.22.22 0 0 1-.22-.14L95 49.09h-3.59v4.13a.23.23 0 0 1-.26.21h-.29a.22.22 0 0 1-.21-.21Zm4.16 6a2.82 2.82 0 0 0 2.85-2.8 2.78 2.78 0 0 0-2.86-2.7h-3.38v5.5Zm6.66-6a.21.21 0 0 1 .21-.2h6.44a.21.21 0 0 1 .21.2v.28a.22.22 0 0 1-.21.21h-5.88v4.43h5.09a.21.21 0 0 1 .21.21v.27a.21.21 0 0 1-.21.21h-5.09v4.76h5.88a.21.21 0 0 1 .21.2v.26a.22.22 0 0 1-.21.21h-6.44a.22.22 0 0 1-.21-.21Z" class="cls-1"/><path d="M101.47 42.4a.21.21 0 0 1 .21-.2h6.44a.21.21 0 0 1 .21.2v.28a.22.22 0 0 1-.21.21h-5.88v4.43h5.09a.21.21 0 0 1 .21.21v.27a.21.21 0 0 1-.21.21h-5.09v4.76h5.88a.21.21 0 0 1 .21.2v.26a.22.22 0 0 1-.21.21h-6.44a.22.22 0 0 1-.21-.21Zm9.21 10.85 4.94-11.18a.24.24 0 0 1 .2-.12h.05a.19.19 0 0 1 .2.12L121 53.25c0 .09 0 .19-.14.19h-.42a.26.26 0 0 1-.22-.14l-1.31-3h-6.13l-1.28 3a.29.29 0 0 1-.23.14h-.45c-.11 0-.16-.06-.11-.19m7.93-3.54-2.74-6.47-2.9 6.47Z" class="cls-1"/><path d="m110.68 53.25 4.94-11.18a.24.24 0 0 1 .2-.12h.05a.19.19 0 0 1 .2.12L121 53.25c0 .09 0 .19-.14.19h-.42a.26.26 0 0 1-.22-.14l-1.31-3h-6.13l-1.28 3a.29.29 0 0 1-.23.14h-.45c-.11 0-.16-.06-.11-.19m7.93-3.54-2.74-6.47-2.9 6.47Zm-43.7 9.43a.12.12 0 0 1 .12-.13h2.62a.13.13 0 0 1 .13.13v.19a.13.13 0 0 1-.13.13h-2.23v1.62h1.91a.13.13 0 0 1 .12.13v.19a.13.13 0 0 1-.12.13h-1.91v1.69h2.23a.13.13 0 0 1 .13.13v.19a.13.13 0 0 1-.13.13h-2.62a.12.12 0 0 1-.12-.13Z" class="cls-1"/><path d="M74.94 59.14a.12.12 0 0 1 .12-.13h2.62a.13.13 0 0 1 .13.13v.19a.13.13 0 0 1-.13.13h-2.23v1.62h1.91a.13.13 0 0 1 .12.13v.19a.13.13 0 0 1-.12.13h-1.91v1.69h2.23a.13.13 0 0 1 .13.13v.19a.13.13 0 0 1-.13.13h-2.62a.12.12 0 0 1-.12-.13Zm3.86-.07a.12.12 0 0 1 .13-.12h.16l3 3.73v-3.54a.13.13 0 0 1 .13-.13h.23a.13.13 0 0 1 .13.13v4.47a.12.12 0 0 1-.13.12h-.12l-3-3.81v3.62a.13.13 0 0 1-.13.13h-.23a.13.13 0 0 1-.13-.13Z" class="cls-1"/><path d="M78.8 59.07a.12.12 0 0 1 .13-.12h.16l3 3.73v-3.54a.13.13 0 0 1 .13-.13h.23a.13.13 0 0 1 .13.13v4.47a.12.12 0 0 1-.13.12h-.12l-3-3.81v3.62a.13.13 0 0 1-.13.13h-.23a.13.13 0 0 1-.13-.13Zm4.44.12a.12.12 0 0 1 .11-.18h.27a.11.11 0 0 1 .11.08l1.66 3.72 1.66-3.72a.12.12 0 0 1 .11-.08h.27a.12.12 0 0 1 .11.18l-2 4.47a.12.12 0 0 1-.11.07h-.07a.12.12 0 0 1-.11-.07Z" class="cls-1"/><path d="M83.24 59.19a.12.12 0 0 1 .11-.18h.27a.11.11 0 0 1 .11.08l1.66 3.72 1.66-3.72a.12.12 0 0 1 .11-.08h.27a.12.12 0 0 1 .11.18l-2 4.47a.12.12 0 0 1-.11.07h-.07a.12.12 0 0 1-.11-.07Z" class="cls-1"/><rect width=".52" height="4.65" x="88.21" y="59.01" class="cls-1" rx=".13"/><rect width=".52" height="4.65" x="88.21" y="59.01" class="cls-1" rx=".13"/><path d="M90 59.14a.13.13 0 0 1 .13-.13h1.72a1.43 1.43 0 0 1 1.45 1.42 1.51 1.51 0 0 1-1 1.36l.91 1.68a.13.13 0 0 1-.12.2h-.34a.12.12 0 0 1-.1-.06l-.89-1.76h-1.23v1.69a.13.13 0 0 1-.13.13h-.26a.13.13 0 0 1-.13-.13Zm1.82 2.27a1 1 0 0 0 0-1.91h-1.28v1.91Z" class="cls-1"/><path d="M90 59.14a.13.13 0 0 1 .13-.13h1.72a1.43 1.43 0 0 1 1.45 1.42 1.51 1.51 0 0 1-1 1.36l.91 1.68a.13.13 0 0 1-.12.2h-.34a.12.12 0 0 1-.1-.06l-.89-1.76h-1.23v1.69a.13.13 0 0 1-.13.13h-.26a.13.13 0 0 1-.13-.13Zm1.82 2.27a1 1 0 0 0 0-1.91h-1.28v1.91ZM96.38 59A2.39 2.39 0 1 1 94 61.35 2.39 2.39 0 0 1 96.38 59m0 4.32a1.93 1.93 0 1 0-1.92-1.92 1.94 1.94 0 0 0 1.92 1.92" class="cls-1"/><path d="M96.38 59A2.39 2.39 0 1 1 94 61.35 2.39 2.39 0 0 1 96.38 59m0 4.32a1.93 1.93 0 1 0-1.92-1.92 1.94 1.94 0 0 0 1.92 1.92m3.34-4.25a.12.12 0 0 1 .12-.12h.16l3 3.73v-3.54a.13.13 0 0 1 .13-.13h.23a.13.13 0 0 1 .13.13v4.47a.12.12 0 0 1-.13.12h-.12l-3.05-3.81v3.62a.12.12 0 0 1-.12.13h-.24a.13.13 0 0 1-.12-.13Z" class="cls-1"/><path d="M99.72 59.07a.12.12 0 0 1 .12-.12h.16l3 3.73v-3.54a.13.13 0 0 1 .13-.13h.23a.13.13 0 0 1 .13.13v4.47a.12.12 0 0 1-.13.12h-.12l-3.05-3.81v3.62a.12.12 0 0 1-.12.13h-.24a.13.13 0 0 1-.12-.13Zm5.59-.07a.14.14 0 0 1 .12-.09h.11a.11.11 0 0 1 .11.07l1.35 3.7 1.3-3.68a.12.12 0 0 1 .11-.07h.11a.13.13 0 0 1 .12.09l.86 4.47c0 .09 0 .16-.12.16h-.27a.14.14 0 0 1-.12-.1l-.59-3.42-1.22 3.51a.12.12 0 0 1-.11.07h-.12a.15.15 0 0 1-.12-.07l-1.23-3.51-.6 3.44a.12.12 0 0 1-.12.1h-.26c-.1 0-.14-.07-.12-.16Z" class="cls-1"/><path d="M105.31 59a.14.14 0 0 1 .12-.09h.11a.11.11 0 0 1 .11.07l1.35 3.7 1.3-3.68a.12.12 0 0 1 .11-.07h.11a.13.13 0 0 1 .12.09l.86 4.47c0 .09 0 .16-.12.16h-.27a.14.14 0 0 1-.12-.1l-.59-3.42-1.22 3.51a.12.12 0 0 1-.11.07h-.12a.15.15 0 0 1-.12-.07l-1.23-3.51-.6 3.44a.12.12 0 0 1-.12.1h-.26c-.1 0-.14-.07-.12-.16Zm5.14.14a.12.12 0 0 1 .12-.13h2.62a.13.13 0 0 1 .13.13v.19a.13.13 0 0 1-.13.13H111v1.62h1.91a.13.13 0 0 1 .12.13v.19a.13.13 0 0 1-.12.13H111v1.69h2.23a.13.13 0 0 1 .13.13v.19a.13.13 0 0 1-.13.13h-2.62a.12.12 0 0 1-.12-.13Z" class="cls-1"/><path d="M110.45 59.14a.12.12 0 0 1 .12-.13h2.62a.13.13 0 0 1 .13.13v.19a.13.13 0 0 1-.13.13H111v1.62h1.91a.13.13 0 0 1 .12.13v.19a.13.13 0 0 1-.12.13H111v1.69h2.23a.13.13 0 0 1 .13.13v.19a.13.13 0 0 1-.13.13h-2.62a.12.12 0 0 1-.12-.13Zm3.86-.07a.12.12 0 0 1 .12-.12h.17l3 3.73v-3.54a.13.13 0 0 1 .13-.13h.27a.13.13 0 0 1 .13.13v4.47a.12.12 0 0 1-.13.12h-.12l-3-3.81v3.62a.12.12 0 0 1-.12.13h-.24a.13.13 0 0 1-.12-.13Z" class="cls-1"/><path d="M114.31 59.07a.12.12 0 0 1 .12-.12h.17l3 3.73v-3.54a.13.13 0 0 1 .13-.13h.27a.13.13 0 0 1 .13.13v4.47a.12.12 0 0 1-.13.12h-.12l-3-3.81v3.62a.12.12 0 0 1-.12.13h-.24a.13.13 0 0 1-.12-.13Zm5.69.39h-1.16a.13.13 0 0 1-.13-.13v-.19a.13.13 0 0 1 .13-.13h2.82a.13.13 0 0 1 .13.13v.19a.13.13 0 0 1-.13.13h-1.16v4.08a.13.13 0 0 1-.12.13h-.26a.13.13 0 0 1-.12-.13Z" class="cls-1"/><path d="M120 59.46h-1.16a.13.13 0 0 1-.13-.13v-.19a.13.13 0 0 1 .13-.13h2.82a.13.13 0 0 1 .13.13v.19a.13.13 0 0 1-.13.13h-1.16v4.08a.13.13 0 0 1-.12.13h-.26a.13.13 0 0 1-.12-.13Zm2.18 3.54a1 1 0 0 0 .1-.13c.07-.08.14-.14.24-.06a1.8 1.8 0 0 0 1.12.51.8.8 0 0 0 .89-.73c0-.46-.4-.73-1.16-1.05s-1.17-.62-1.17-1.38a1.26 1.26 0 0 1 1.41-1.16 2.2 2.2 0 0 1 1.14.34.14.14 0 0 1 0 .22l-.08.13a.15.15 0 0 1-.23.06 1.85 1.85 0 0 0-.87-.31c-.71 0-.92.45-.92.73 0 .45.34.71.9.94.89.37 1.47.71 1.47 1.48a1.32 1.32 0 0 1-1.43 1.19 2.2 2.2 0 0 1-1.41-.54.14.14 0 0 1 0-.22" class="cls-1"/><path d="M122.18 63a1 1 0 0 0 .1-.13c.07-.08.14-.14.24-.06a1.8 1.8 0 0 0 1.12.51.8.8 0 0 0 .89-.73c0-.46-.4-.73-1.16-1.05s-1.17-.62-1.17-1.38a1.26 1.26 0 0 1 1.41-1.16 2.2 2.2 0 0 1 1.14.34.14.14 0 0 1 0 .22l-.08.13a.15.15 0 0 1-.23.06 1.85 1.85 0 0 0-.87-.31c-.71 0-.92.45-.92.73 0 .45.34.71.9.94.89.37 1.47.71 1.47 1.48a1.32 1.32 0 0 1-1.43 1.19 2.2 2.2 0 0 1-1.41-.54.14.14 0 0 1 0-.22" class="cls-1"/></g></svg>