<svg xmlns="http://www.w3.org/2000/svg" viewBox="0 0 200 65"><defs><style>.cls-1{fill:#1f1f1f;}</style></defs><g id="stackabl"><path class="cls-1" d="M79,40.76c-5.49,0-7.62-2.18-7.62-7.58V32.05c0-5.41,2.13-7.58,7.62-7.58h.77c5.29,0,7.11,2.17,7.59,6.2H82.86c-.17-2.06-1.43-2.58-3.15-2.58h-.56c-2.88,0-3.26,1.56-3.26,4.12V33c0,2.56.38,4.12,3.26,4.12h.56c1.72,0,3-.56,3.15-2.58h4.53c-.4,4.35-2.77,6.2-7.59,6.2Z"/><path class="cls-1" d="M79,19.29c-4.38,0-7.14-1.41-7.48-4.8h4.68C76.53,15.76,78.53,16,80,16c1.81,0,2.88-.45,2.88-1.51v-.23c0-.91-.73-1.29-2.38-1.36l-3.15-.07c-3.89-.13-5.68-1.44-5.68-4.5V8.18C71.62,4.76,73.81,3,78.45,3h1.21c4.3,0,7,1.79,7.3,5H82.28c-.31-1.27-1.52-1.68-3-1.68-1.7,0-3.38,0-3.38,1.52v.09c0,1,.71,1.34,2.36,1.38l3.15.09c3.89.14,5.68,1.45,5.68,4.5v.16c0,3.73-2.58,5.23-7.08,5.23Z"/><polygon class="cls-1" points="98.12 19.06 98.12 7 92.78 7 92.78 3.23 108.08 3.23 108.08 7 102.58 7 102.58 19.06 98.12 19.06"/><path class="cls-1" d="M118.47,12.43h4l-2-5.72h-.15Zm6.27,6.63-1.09-3.19h-6.31l-1.08,3.19h-4.73l5.74-15.83h6.65l5.75,15.83Z"/><polygon class="cls-1" points="94.17 40.53 94.17 24.7 98.58 24.7 98.58 31.07 98.74 31.07 104.53 24.7 109.98 24.7 103.99 31.03 110.14 40.53 104.71 40.53 100.73 34.31 100.57 34.31 98.58 36.39 98.58 40.53 94.17 40.53"/><path class="cls-1" d="M77.28,55.37h4l-1.94-5.72h-.16ZM83.54,62l-1.08-3.19H76.14L75.06,62H70.33l5.75-15.83h6.65L88.47,62Z"/><path class="cls-1" d="M98.73,55.44v3.14H103c1.76,0,2.21-.31,2.21-1.51v-.16c0-1.24-.43-1.47-2.26-1.47Zm0-2.9h4.48c1.36,0,1.75-.25,1.75-1.38v-.09c0-1.13-.39-1.49-2-1.49H98.73ZM104.05,62H94.32V46.17h9.48c4.28,0,5.61,1.4,5.61,4v.2c0,2-.74,3.17-2.73,3.42V54c2.17.2,2.94,1.4,2.94,3.41v.32c0,2.87-1.45,4.3-5.57,4.3"/><polygon class="cls-1" points="116.21 62 116.21 46.16 120.62 46.16 120.62 58.22 128.45 58.22 128.45 62 116.21 62"/></g></svg>