<svg xmlns="http://www.w3.org/2000/svg" viewBox="0 0 200 65"><defs><style>.cls-1{fill:#1f1f1f;}</style></defs><g id="_jf_contract" data-name="#jf_contract"><path class="cls-1" d="M6.25,44.35c.3-.29.54-.27.87,0a2.46,2.46,0,0,0,3.7-.72,4.6,4.6,0,0,0,.83-2.57c0-3.11.08-6.23.1-9.34s0-6,0-9a7.51,7.51,0,0,0-.13-1.34c-.28-1.25-.73-1.61-2.07-1.71v-.61h7v.61a4.62,4.62,0,0,0-.65.07,1.8,1.8,0,0,0-1.45,1.69c-.06.61-.1,1.23-.1,1.85,0,6,0,12,0,18a4.66,4.66,0,0,1-2.2,4.19,4.36,4.36,0,0,1-2.13.65,4,4,0,0,1-2.94-.72c-.29-.24-.54-.52-.81-.78Z"/><path class="cls-1" d="M76.76,18.83c.67.2,1.36.38,2,.62a9.27,9.27,0,0,1,3.8,2.78A9.8,9.8,0,0,1,83.94,33.1a9.66,9.66,0,0,1-15.41,2.68,9.5,9.5,0,0,1-2.8-5.34,9.38,9.38,0,0,1,1.32-7.06,9.65,9.65,0,0,1,6.68-4.45s.06-.07.09-.1Zm7.15,9.85a8.45,8.45,0,0,0-1-4.14,9.7,9.7,0,0,0-2.84-3.27,7.91,7.91,0,0,0-6.5-1.39,8.36,8.36,0,0,0-4.76,2.91,8.7,8.7,0,0,0-2,7.94,9,9,0,0,0,2.74,4.66,8,8,0,0,0,6.49,2.17,8.24,8.24,0,0,0,5.62-3A8.82,8.82,0,0,0,83.91,28.68Z"/><path class="cls-1" d="M151,18.83c.17.53.33,1.07.52,1.59q1.86,4.93,3.74,9.86c.83,2.2,1.68,4.39,2.53,6.58a.71.71,0,0,0,.42.31,2.14,2.14,0,0,0,.57,0V38h-1.66l-1.23-3.19c-.21-.56-.39-1.13-.64-1.67a.73.73,0,0,0-.51-.35q-4.4,0-8.79,0a.62.62,0,0,0-.45.32c-.62,1.52-1.22,3-1.79,4.58-.11.28-.22.37-.5.36s-.84,0-1.3,0v-.81s.06,0,.09,0c.82-.05.8-.06,1.09-.84q1.49-3.93,3-7.86l2.71-7.15c.31-.84.6-1.68.9-2.52Zm-.68,1.4c-1.5,4-2.94,7.81-4.4,11.67h8.85C153.34,28,151.88,24.2,150.36,20.23Z"/><path class="cls-1" d="M55.12,18.83c.29.08.58.18.87.25a9.52,9.52,0,0,1,4,2.18,10.13,10.13,0,0,1,2.4,3.22c-.36,0-.67,0-1,0a.51.51,0,0,1-.34-.21,8.86,8.86,0,0,0-4.26-3.87A7.82,7.82,0,0,0,52,19.88a8.89,8.89,0,0,0-6.12,4.83,8.48,8.48,0,0,0-.8,5.19,8.85,8.85,0,0,0,3,5.64,8,8,0,0,0,4.29,2,8.42,8.42,0,0,0,6.67-1.93A7.25,7.25,0,0,0,61.2,33c.2-.43.43-.63.89-.55a4.55,4.55,0,0,0,.53,0c-.21.45-.37.85-.59,1.22a9.83,9.83,0,0,1-12.62,3.93,9.67,9.67,0,0,1-3.07-2.44,9.27,9.27,0,0,1-2.24-4.71,9.68,9.68,0,0,1,1.69-7.49,9.92,9.92,0,0,1,3.74-3.19A20,20,0,0,1,52,19a1.22,1.22,0,0,0,.19-.12Z"/><path class="cls-1" d="M171.47,18.83c.35.1.7.21,1.06.3a9.43,9.43,0,0,1,5.32,3.69c.36.51.67,1.05,1.05,1.65h-1.26a8.83,8.83,0,0,0-4.13-4A7.86,7.86,0,0,0,169,19.8a8.49,8.49,0,0,0-4.44,2.09,8.62,8.62,0,0,0-3,5.36,8.77,8.77,0,0,0,1.76,6.9,8.45,8.45,0,0,0,4.14,3A8.34,8.34,0,0,0,174.94,36a7.08,7.08,0,0,0,2.53-2.84c.33-.7.77-.88,1.58-.66a20.75,20.75,0,0,1-1.2,2,9.7,9.7,0,0,1-13.75,1.89,9.43,9.43,0,0,1-3.31-4.83,9.76,9.76,0,0,1,.58-7.35A10,10,0,0,1,168.08,19l.54-.14Z"/><path class="cls-1" d="M31.3,31.48c-.15-.7-.18-1.39-.78-1.79a2.11,2.11,0,0,0-1-.43c-1.78,0-3.56,0-5.34,0l-.2,0v.53c0,1.74,0,3.48,0,5.22a9.51,9.51,0,0,0,.2,1.68A1.71,1.71,0,0,0,25.83,38h.38v.64h-7V38c.23,0,.45,0,.66-.08a1.82,1.82,0,0,0,1.43-1.76,12.94,12.94,0,0,0,.11-1.65c0-3.87,0-7.73,0-11.6a8.25,8.25,0,0,0-.12-1.49c-.23-1.26-.72-1.66-2.07-1.76v-.61h13.4v3.45l-.45,0a1,1,0,0,1-.08-.14c-.07-.28-.12-.58-.22-.86a1.9,1.9,0,0,0-2-1.43H24.05v8.05h2.33c.88,0,1.76,0,2.64,0,1.47,0,1.92-.69,2.12-1.83.08-.44.23-.59.67-.46v5.56Z"/><path class="cls-1" d="M118.73,44.82q-37.14,0-74.28,0c-.22,0-.65.2-.64-.2s.42-.21.64-.21H193.11c.22,0,.65-.2.64.21s-.42.2-.64.2Q155.91,44.84,118.73,44.82Z"/><path class="cls-1" d="M102.48,36V19.3h2.07v.8l-1,0V38.41a.89.89,0,0,1-1.12-.41c-2.63-4-5.28-8-7.92-12-1.27-1.9-2.52-3.82-3.84-5.84V38h-2V37.2l.85,0V19.26c.56,0,1.06,0,1.56,0,.14,0,.29.2.38.34q4,5.94,7.9,11.88c1,1.5,2,3,3,4.53Z"/><path class="cls-1" d="M125.16,20.15l-.89,0v-.85h.56c2.52,0,5,0,7.57,0a4.4,4.4,0,0,1,4.31,4.12,6,6,0,0,1-.23,2.5,4.18,4.18,0,0,1-2.75,2.75l-.69.24a6.63,6.63,0,0,1,1.88,2.4c.77,1.66,1.63,3.28,2.45,4.92a1.66,1.66,0,0,1,.2.4c.08.51.38.67.86.6a1.56,1.56,0,0,1,.37,0v.85a14.5,14.5,0,0,1-1.48,0c-.14,0-.3-.22-.38-.38-1.06-2.12-2.07-4.25-3.17-6.35a7,7,0,0,0-1.27-1.62,1.37,1.37,0,0,0-.91-.32c-1.76,0-3.52,0-5.34,0V38h-1.09Zm1.1,8.32c1.41,0,2.76.05,4.11,0a10,10,0,0,0,2.45-.4,4.08,4.08,0,0,0,2.75-5.15,3.62,3.62,0,0,0-3.64-2.77h-5.67Z"/><path class="cls-1" d="M115.18,38h-1.09V20.16H109v.94h-1V19.29h13.2V21.1h-1v-1h-5Z"/><path class="cls-1" d="M187.52,38h-1V20.16h-5.11v.94h-1.07V19.29h13.31V21.1h-1v-1h-5.11Z"/></g></svg>